<?xml version="1.0" encoding="UTF-8"?>
<svg version="1.1" xmlns="http://www.w3.org/2000/svg" width="500" height="499">
<path d="M0 0 C1.89500137 2.74775199 1.94191409 5.54678938 2.25 8.8125 C2.91 8.8125 3.57 8.8125 4.25 8.8125 C4.75314563 11.58279586 5.25263838 14.3536652 5.75 17.125 C5.89308594 17.91068359 6.03617187 18.69636719 6.18359375 19.50585938 C6.31894531 20.26318359 6.45429688 21.02050781 6.59375 21.80078125 C6.78227539 22.84552612 6.78227539 22.84552612 6.97460938 23.91137695 C7.25 25.8125 7.25 25.8125 7.25 28.8125 C7.91 29.1425 8.57 29.4725 9.25 29.8125 C10.34995033 32.58686866 11.2376508 35.40573143 12.15234375 38.24609375 C13.09922795 41.10695657 13.09922795 41.10695657 16.25 42.8125 C16.25 43.4725 16.25 44.1325 16.25 44.8125 C17.1678125 44.98265625 18.085625 45.1528125 19.03125 45.328125 C26.12243903 46.72848586 31.92318279 48.36150879 38.25 51.8125 C39.90740715 52.18918344 41.57345271 52.53307545 43.25 52.8125 C43.889375 53.163125 44.52875 53.51375 45.1875 53.875 C48.10110126 55.19936421 50.07471415 55.1935343 53.25 54.8125 C56.9078218 52.77256092 58.91946174 51.30830738 61.25 47.8125 C62.96959666 46.80669818 64.69195346 45.80448689 66.44140625 44.8515625 C70.85547139 42.31562011 74.29256556 38.79404078 77.8359375 35.20703125 C82.99342753 30.64636867 87.36697738 29.96874956 94.171875 30.27734375 C98.74603726 31.07259785 100.94708153 32.58639359 104.25 35.8125 C104.25 36.4725 104.25 37.1325 104.25 37.8125 C105.24 37.8125 106.23 37.8125 107.25 37.8125 C108.6065164 39.12223998 109.93557638 40.46052142 111.25 41.8125 C112.28125 42.4725 113.3125 43.1325 114.375 43.8125 C117.31808448 45.85986312 117.73441933 46.78133867 119.25 49.8125 C120.9135479 50.48691131 122.58066942 51.1525321 124.25 51.8125 C126.75 54 126.75 54 129.25 56.8125 C129.72050781 57.3178125 130.19101562 57.823125 130.67578125 58.34375 C134.22799996 62.58639995 134.87227397 65.96700972 134.5234375 71.45703125 C133.69222292 78.61735113 133.69222292 78.61735113 130.2890625 81.4375 C127.21423789 83.56229574 124.25124272 85.41515643 120.76953125 86.796875 C118.05406313 87.8914823 115.74984645 89.29037128 113.25 90.8125 C110.86241041 92.06390778 108.47241401 93.2937839 106.0625 94.5 C105.43408203 94.82033203 104.80566406 95.14066406 104.15820312 95.47070312 C99.48958889 97.8125 99.48958889 97.8125 97.25 97.8125 C97.25 98.4725 97.25 99.1325 97.25 99.8125 C96.198125 100.3075 95.14625 100.8025 94.0625 101.3125 C86.84839271 104.91955364 78.87957557 108.98066423 73.25 114.8125 C71.25819591 115.82872658 69.25847365 116.82962992 67.25 117.8125 C66.59 118.4725 65.93 119.1325 65.25 119.8125 C63.26178687 120.21014263 61.26055661 120.55025349 59.25 120.8125 C58.92 119.8225 58.59 118.8325 58.25 117.8125 C56.60008418 117.10539322 54.9292238 116.44687344 53.25 115.8125 C51.2366347 114.49943567 49.23768394 113.16412508 47.25 111.8125 C42.56141163 109.03785229 37.82684222 106.57814091 32.875 104.3125 C32.21145508 104.00844238 31.54791016 103.70438477 30.86425781 103.39111328 C30.20522461 103.08931152 29.54619141 102.78750977 28.8671875 102.4765625 C26.87988596 101.56231795 24.89789559 100.63465744 22.9453125 99.6484375 C11.83346447 94.15945233 -1.4404282 91.34850238 -13.75 90.8125 C-15.91691659 90.62791081 -18.08357394 90.4402599 -20.25 90.25 C-41.51341795 88.70628582 -64.63979773 90.56874293 -83.75 100.8125 C-84.843125 101.26625 -85.93625 101.72 -87.0625 102.1875 C-92.53103819 104.49131875 -97.64470439 107.51348781 -102.6875 110.625 C-104.75 111.8125 -104.75 111.8125 -106.75 111.8125 C-107.08 112.8025 -107.41 113.7925 -107.75 114.8125 C-112.97222222 117.8125 -112.97222222 117.8125 -115.75 117.8125 C-116.08 118.8025 -116.41 119.7925 -116.75 120.8125 C-118.73201142 123.0776559 -120.4844155 124.66572962 -123.125 126.125 C-126.17336849 128.08466546 -128.05947233 130.33368827 -130.34375 133.11328125 C-132.71309322 135.97623764 -135.40502236 138.48419628 -138.09375 141.04296875 C-143.42607211 146.60269871 -155.75 160.78495766 -155.75 168.8125 C-156.41 169.1425 -157.07 169.4725 -157.75 169.8125 C-158.48075648 172.1265622 -159.15138258 174.46078869 -159.75 176.8125 C-160.41 176.8125 -161.07 176.8125 -161.75 176.8125 C-162.35652689 179.1692902 -162.90844005 181.5295544 -163.43359375 183.90625 C-163.68238281 185.0303125 -163.93117188 186.154375 -164.1875 187.3125 C-164.43371094 188.4365625 -164.67992187 189.560625 -164.93359375 190.71875 C-165.63210495 193.36573982 -166.48969527 195.41191955 -167.75 197.8125 C-167.75 198.4725 -167.75 199.1325 -167.75 199.8125 C-168.41 199.8125 -169.07 199.8125 -169.75 199.8125 C-169.729375 200.823125 -169.70875 201.83375 -169.6875 202.875 C-169.75689353 207.24679245 -170.15423946 211.4344225 -171.21875 215.68359375 C-174.87384566 230.33085211 -174.2195893 243.91861075 -170.9140625 258.5 C-170.63304687 259.758125 -170.35203125 261.01625 -170.0625 262.3125 C-169.65451172 264.06046875 -169.65451172 264.06046875 -169.23828125 265.84375 C-168.75 268.8125 -168.75 268.8125 -169.75 271.8125 C-169.09 272.1425 -168.43 272.4725 -167.75 272.8125 C-165.69103579 278.07689713 -164.67848533 283.56407872 -163.53125 289.08203125 C-163.2734375 289.98308594 -163.015625 290.88414062 -162.75 291.8125 C-162.09 292.1425 -161.43 292.4725 -160.75 292.8125 C-159.70281202 295.12504012 -158.70653635 297.4610148 -157.75 299.8125 C-157.1621875 300.9571875 -157.1621875 300.9571875 -156.5625 302.125 C-155.75 303.8125 -155.75 303.8125 -155.75 305.8125 C-155.09 305.8125 -154.43 305.8125 -153.75 305.8125 C-153.37488281 306.52535156 -152.99976563 307.23820312 -152.61328125 307.97265625 C-147.4847023 317.64269327 -147.4847023 317.64269327 -140.5 326 C-138.75 327.8125 -138.75 327.8125 -138.25 329.9375 C-138.085 330.55625 -137.92 331.175 -137.75 331.8125 C-135.86683841 332.92086423 -135.86683841 332.92086423 -133.75 333.8125 C-132 335.3125 -132 335.3125 -130.75 336.8125 C-130.75 337.4725 -130.75 338.1325 -130.75 338.8125 C-130.19054687 339.06386719 -129.63109375 339.31523437 -129.0546875 339.57421875 C-126.39183792 341.00493623 -124.21832422 342.71603027 -121.875 344.625 C-120.99585938 345.3365625 -120.11671875 346.048125 -119.2109375 346.78125 C-117.28355067 348.37210897 -115.38722111 349.98741131 -113.5 351.625 C-110.71353832 353.84150361 -107.98623945 355.34848691 -104.75 356.8125 C-104.75 357.4725 -104.75 358.1325 -104.75 358.8125 C-103.203125 359.18375 -103.203125 359.18375 -101.625 359.5625 C-97.79525847 360.64797564 -95.06555929 362.60212714 -91.75 364.8125 C-86.0510838 367.45877935 -80.1533152 369.36769628 -74.12109375 371.08984375 C-71.91248106 371.76297941 -69.82233242 372.56243008 -67.6875 373.4375 C-64.17024982 374.80610743 -60.87713133 375.26959767 -57.12109375 375.50390625 C-54.75 375.8125 -54.75 375.8125 -51.8515625 376.82421875 C-45.97539383 378.56685011 -39.75556638 378.09970838 -33.6875 378.0625 C-32.45322266 378.07023437 -31.21894531 378.07796875 -29.94726562 378.0859375 C-20.55382601 378.06627567 -10.73453699 377.80734566 -1.75 374.8125 C-0.6775 374.68875 0.395 374.565 1.5 374.4375 C5.49090163 373.77234973 8.54415643 372.40984637 12.25 370.8125 C13.80612007 370.45055017 15.36930597 370.11792568 16.9375 369.8125 C20.496486 369.08752137 22.40685346 368.10536011 25.25 365.8125 C26.50793225 365.30042138 27.78104075 364.82497806 29.0625 364.375 C34.2210736 362.53402206 38.63712332 360.1565639 42.875 356.625 C45.4148971 354.68665748 47.11104866 354.1712373 50.25 353.8125 C50.25 353.1525 50.25 352.4925 50.25 351.8125 C52.23 351.1525 54.21 350.4925 56.25 349.8125 C56.25 348.8225 56.25 347.8325 56.25 346.8125 C58.078125 345.27734375 58.078125 345.27734375 60.5 343.75 C61.28890625 343.24339844 62.0778125 342.73679687 62.890625 342.21484375 C65.25 340.8125 65.25 340.8125 67.48046875 339.7578125 C69.78071826 338.52898164 70.13761853 337.11142171 71.25 334.8125 C72.24 334.4825 73.23 334.1525 74.25 333.8125 C74.94658363 332.15811387 75.61096883 330.48995682 76.25 328.8125 C77.23310216 327.79588299 78.23547448 326.79776036 79.25 325.8125 C82.07899812 322.29098672 84.72306396 318.71581892 87 314.8125 C87.4125 314.1525 87.825 313.4925 88.25 312.8125 C88.91 312.8125 89.57 312.8125 90.25 312.8125 C90.36730469 312.07773437 90.48460937 311.34296875 90.60546875 310.5859375 C91.25065477 307.80968251 92.13406522 305.88750889 93.5625 303.4375 C94.17544922 302.37402344 94.17544922 302.37402344 94.80078125 301.2890625 C95.92104149 299.37465551 97.06667977 297.4750858 98.22265625 295.58203125 C100.53249804 291.5301361 101.96184096 287.30514142 103.375 282.875 C103.62636719 282.11509766 103.87773437 281.35519531 104.13671875 280.57226562 C106.50359456 273.31673795 108.57054708 266.50563004 108.25 258.8125 C108.91 258.8125 109.57 258.8125 110.25 258.8125 C110.04375 258.235 109.8375 257.6575 109.625 257.0625 C109.25 254.8125 109.25 254.8125 110.20996094 253.07299805 C111.58647537 250.08117947 111.50910031 247.68227747 111.515625 244.39453125 C111.51949219 242.51217773 111.51949219 242.51217773 111.5234375 240.59179688 C111.51570313 239.28275391 111.50796875 237.97371094 111.5 236.625 C111.50773437 235.33529297 111.51546875 234.04558594 111.5234375 232.71679688 C111.58229862 221.45394702 111.58229862 221.45394702 108.25 210.8125 C108.0719644 209.39951906 107.93076947 207.98173364 107.8125 206.5625 C107.52521548 203.52410099 107.11363109 201.45794083 106 198.5625 C105.25 195.8125 105.25 195.8125 106.3125 193.25 C108.458494 190.5502011 110.75144662 188.18917273 113.25 185.8125 C116.13462111 183.09105041 116.13462111 183.09105041 118.25 179.8125 C119.24 179.4825 120.23 179.1525 121.25 178.8125 C123.80519808 176.45385562 126.05701074 174.0615184 128.1875 171.3125 C130.6506723 168.32683661 133.16879373 166.15689608 136.25 163.8125 C136.91 163.8125 137.57 163.8125 138.25 163.8125 C138.55744141 162.98105469 138.55744141 162.98105469 138.87109375 162.1328125 C140.76321365 158.94890537 143.44502594 156.94794154 146.3125 154.6875 C150.33180602 151.73116236 150.33180602 151.73116236 153.25 147.8125 C157.71570449 147.7381161 162.18107684 147.68378829 166.6472168 147.64770508 C168.16518438 147.63265647 169.68310876 147.61221262 171.20092773 147.58618164 C173.38796677 147.54962347 175.57442896 147.53273477 177.76171875 147.51953125 C179.07615967 147.5038208 180.39060059 147.48811035 181.74487305 147.47192383 C185.48971278 147.83579173 187.30838188 148.51364422 190.25 150.8125 C194.46242837 157.57791526 196.31213803 165.1396635 198.25 172.8125 C198.43626953 173.5442041 198.62253906 174.2759082 198.81445312 175.02978516 C204.11614173 196.2140748 204.11614173 196.2140748 201.3125 204.625 C196.28151408 209.96089416 190.38846935 213.29367673 183.25 214.8125 C183.25 215.4725 183.25 216.1325 183.25 216.8125 C182.65832031 217.06644531 182.06664062 217.32039062 181.45703125 217.58203125 C177.20603527 219.43360699 173.18343762 221.3400535 169.25 223.8125 C168.54875 224.1425 167.8475 224.4725 167.125 224.8125 C164.45966969 226.2340095 162.6639687 227.60647118 161.6640625 230.51953125 C161.13751324 233.43542197 161.23391572 236.16271431 161.3125 239.125 C161.37471533 245.74056383 160.7008 251.90734442 159.6875 258.4375 C158.90856774 264.44340156 158.90856774 264.44340156 160.1875 270.25 C162.76489482 273.45221781 165.74358054 275.65715891 169.03125 278.1015625 C170.89964266 279.54233008 172.50708349 280.98079539 174.125 282.6875 C176.14751355 285.02678985 176.14751355 285.02678985 179.25 285.8125 C179.25 286.4725 179.25 287.1325 179.25 287.8125 C180.24 288.1425 181.23 288.4725 182.25 288.8125 C182.25 289.4725 182.25 290.1325 182.25 290.8125 C182.86875 290.956875 183.4875 291.10125 184.125 291.25 C186.25 291.8125 186.25 291.8125 188.25 292.8125 C188.25 293.8025 188.25 294.7925 188.25 295.8125 C188.889375 296.039375 189.52875 296.26625 190.1875 296.5 C192.25 297.8125 192.25 297.8125 192.9375 300.1875 C193.040625 301.05375 193.14375 301.92 193.25 302.8125 C193.57483418 304.14792939 193.9050855 305.48211551 194.25 306.8125 C193.59 306.8125 192.93 306.8125 192.25 306.8125 C192.15847656 307.79347656 192.06695312 308.77445312 191.97265625 309.78515625 C191.32076576 314.30304078 189.59740769 318.13406792 187.6875 322.25 C187.15721191 323.41329834 187.15721191 323.41329834 186.61621094 324.60009766 C185.5083798 327.01117312 184.38289627 329.41310889 183.25 331.8125 C182.8885791 332.58062012 182.5271582 333.34874023 182.15478516 334.14013672 C181.11662389 336.32939533 180.06273276 338.51007641 179 340.6875 C178.68345459 341.3467749 178.36690918 342.0060498 178.04077148 342.68530273 C176.22452739 346.33064508 174.47235329 349.2802109 171.25 351.8125 C163.56882578 354.14655846 152.76530796 353.31760265 145.25 350.8125 C143.8154137 350.64034964 142.37723192 350.4968426 140.9375 350.375 C138.04463644 350.09037955 135.94864059 349.70179654 133.1875 348.6875 C129.29040054 347.52666186 126.14863886 347.69053147 122.25 348.8125 C119.45688307 350.53017582 119.45688307 350.53017582 117.25 352.8125 C116.528125 353.4725 115.80625 354.1325 115.0625 354.8125 C113.3161914 356.73946121 112.26904097 358.43473773 111.25 360.8125 C110.59 360.8125 109.93 360.8125 109.25 360.8125 C108.981875 361.616875 108.71375 362.42125 108.4375 363.25 C108.045625 364.095625 107.65375 364.94125 107.25 365.8125 C106.26 366.1425 105.27 366.4725 104.25 366.8125 C103.55666692 368.13216339 102.89492435 369.46851532 102.25 370.8125 C100.89278197 372.39047036 99.51611183 373.95182716 98.125 375.5 C94.78447694 379.6347309 93.26365199 382.25369859 93.7734375 387.578125 C94.44728912 390.73749487 95.35660906 393.74741969 96.49609375 396.76953125 C97.23432761 398.77003025 97.76840268 400.7369434 98.25 402.8125 C98.45625 403.67875 98.6625 404.545 98.875 405.4375 C99.25 407.8125 99.25 407.8125 98.25 409.8125 C98.91 410.1425 99.57 410.4725 100.25 410.8125 C101.38958097 416.72177872 102.35796975 423.46679202 99.25 428.8125 C96.75982626 431.38690795 94.1809989 433.74858827 91.25 435.8125 C90.59 435.8125 89.93 435.8125 89.25 435.8125 C89.25 436.4725 89.25 437.1325 89.25 437.8125 C88.198125 438.245625 87.14625 438.67875 86.0625 439.125 C82.95143805 440.45472809 80.12652004 442.02439295 77.25 443.8125 C74.50048607 445.34899308 73.47585306 445.8125 70.25 445.8125 C69.92 446.4725 69.59 447.1325 69.25 447.8125 C65.53530176 449.9587701 63.60855288 450.8125 59.25 450.8125 C58.92 451.4725 58.59 452.1325 58.25 452.8125 C52.74395095 455.82347401 47.45045236 457.88902837 41.25 458.8125 C39.83092733 459.49501992 38.41462108 460.18330073 37 460.875 C32.01227989 462.95195336 27.45412283 463.2232999 22.125 463.25 C21.3731543 463.25974854 20.62130859 463.26949707 19.84667969 463.27954102 C14.39743522 463.19779041 10.21893471 462.07259916 5.25 459.8125 C3.625 457.5625 3.625 457.5625 2.25 454.8125 C1.27489763 453.62494516 0.27240219 452.45958538 -0.75 451.3125 C-6.75 444.46175373 -6.75 444.46175373 -6.75 440.8125 C-7.74 440.4825 -8.73 440.1525 -9.75 439.8125 C-10.05035156 439.20792969 -10.35070312 438.60335938 -10.66015625 437.98046875 C-12.04345536 435.22874472 -13.7422804 433.97597904 -16.1875 432.125 C-16.96996094 431.52300781 -17.75242188 430.92101562 -18.55859375 430.30078125 C-22.67042362 427.50825508 -25.04568745 427.98994954 -29.75 428.8125 C-32.14451381 428.90226127 -34.54130988 428.94263653 -36.9375 428.9375 C-38.14792969 428.94007813 -39.35835937 428.94265625 -40.60546875 428.9453125 C-43.75 428.8125 -43.75 428.8125 -46.75 427.8125 C-48.74961564 427.77329185 -50.75049364 427.76806653 -52.75 427.8125 C-52.75 427.1525 -52.75 426.4925 -52.75 425.8125 C-53.69101563 425.75191406 -54.63203125 425.69132812 -55.6015625 425.62890625 C-56.84679687 425.54511719 -58.09203125 425.46132813 -59.375 425.375 C-60.60476562 425.29378906 -61.83453125 425.21257812 -63.1015625 425.12890625 C-66.75 424.8125 -66.75 424.8125 -70.0234375 424.21484375 C-73.90145651 423.64258593 -75.51058865 424.65289243 -78.75 426.8125 C-80.42082992 428.60665308 -81.95730042 430.44455941 -83.453125 432.38671875 C-84.09507812 433.09248047 -84.09507812 433.09248047 -84.75 433.8125 C-85.41 433.8125 -86.07 433.8125 -86.75 433.8125 C-86.811875 434.369375 -86.87375 434.92625 -86.9375 435.5 C-87.8437603 438.07935624 -89.10999093 439.34413882 -91.08984375 441.1796875 C-94.12073971 444.16066282 -96.80785344 447.47126764 -99.56640625 450.703125 C-102.77916122 453.80668078 -104.66465042 453.74683828 -109.04296875 454.01171875 C-113.07927298 453.79480461 -116.24396074 452.93548074 -120.0625 451.625 C-120.71186523 451.40231445 -121.36123047 451.17962891 -122.03027344 450.95019531 C-126.81114176 449.26352578 -131.32748604 447.23004152 -135.796875 444.828125 C-137.86953135 443.68537008 -137.86953135 443.68537008 -140.75 442.8125 C-140.75 442.1525 -140.75 441.4925 -140.75 440.8125 C-143.39 440.1525 -146.03 439.4925 -148.75 438.8125 C-148.75 437.8225 -148.75 436.8325 -148.75 435.8125 C-149.45125 435.73 -150.1525 435.6475 -150.875 435.5625 C-155.93619572 434.24218807 -158.92621461 432.14118611 -161.6875 427.6875 C-165.03048623 418.3875643 -160.09580788 406.42731841 -157.74609375 397.35742188 C-155.15207404 386.78269 -155.15207404 386.78269 -157.984375 376.578125 C-158.48453125 376.07796875 -158.9846875 375.5778125 -159.5 375.0625 C-159.98984375 374.55203125 -160.4796875 374.0415625 -160.984375 373.515625 C-161.56703125 372.95359375 -162.1496875 372.3915625 -162.75 371.8125 C-166.73493294 367.92853665 -170.39329045 363.85492774 -174 359.625 C-174.54140625 358.99658203 -175.0828125 358.36816406 -175.640625 357.72070312 C-179.62323778 353.06602444 -179.62323778 353.06602444 -180.75 350.8125 C-185.67447807 347.31352874 -189.63836213 347.73411533 -195.359375 348.390625 C-197.75512731 348.69632604 -197.75512731 348.69632604 -199.75 349.8125 C-203.45889145 350.48654823 -207.20115084 350.94146348 -210.9375 351.4375 C-211.96681641 351.58445312 -212.99613281 351.73140625 -214.05664062 351.8828125 C-221.65938406 352.89586223 -228.29671495 353.69606707 -234.75 348.8125 C-238.46729322 344.64629637 -240.98909675 340.03931214 -243.5625 335.125 C-244.2129126 333.88435791 -244.2129126 333.88435791 -244.87646484 332.61865234 C-247.84495973 326.83836054 -250.49615441 320.98391528 -252.875 314.9375 C-253.16995361 314.19540283 -253.46490723 313.45330566 -253.76879883 312.6887207 C-255.64712883 307.72427678 -256.39536165 304.17882605 -255 299.0625 C-253.75 296.8125 -253.75 296.8125 -251.625 296 C-250.696875 295.9071875 -250.696875 295.9071875 -249.75 295.8125 C-249.6675 295.19375 -249.585 294.575 -249.5 293.9375 C-248.75 291.8125 -248.75 291.8125 -246.9375 290.8125 C-246.215625 290.4825 -245.49375 290.1525 -244.75 289.8125 C-244.110625 289.173125 -243.47125 288.53375 -242.8125 287.875 C-240.75 285.8125 -240.75 285.8125 -238.3125 284.375 C-235.6257578 282.87477449 -235.6257578 282.87477449 -233.375 280.4375 C-230.85712615 277.91962615 -228.38642973 276.11159575 -225.3984375 274.21875 C-223.16822797 272.31620159 -222.01877271 270.45092643 -220.75 267.8125 C-220.52891768 265.39075916 -220.52891768 265.39075916 -220.9375 262.8125 C-221.05351562 261.77738281 -221.16953125 260.74226563 -221.2890625 259.67578125 C-221.44117188 258.40089844 -221.59328125 257.12601562 -221.75 255.8125 C-222.12090567 252.20992005 -222.46584322 248.60497995 -222.8125 245 C-222.90362061 244.10474609 -222.99474121 243.20949219 -223.08862305 242.28710938 C-223.56869239 237.43302467 -223.84981442 232.69009804 -223.75 227.8125 C-224.41 227.8125 -225.07 227.8125 -225.75 227.8125 C-226.74 226.8225 -226.74 226.8225 -227.75 225.8125 C-232.16727668 222.80875185 -236.67556071 220.32849838 -241.47583008 218.0090332 C-249.07998707 214.33195577 -256.43846327 210.53987035 -262.75 204.8125 C-267.60180183 190.2570945 -260.75450147 168.38172773 -254.75 154.8125 C-253.2578125 152.5078125 -253.2578125 152.5078125 -251.75 150.8125 C-251.09 150.8125 -250.43 150.8125 -249.75 150.8125 C-249.75 150.1525 -249.75 149.4925 -249.75 148.8125 C-246.78 147.8225 -246.78 147.8225 -243.75 146.8125 C-243.75 146.4825 -243.75 146.1525 -243.75 145.8125 C-240.60418577 145.78361486 -237.45840531 145.76574077 -234.3125 145.75 C-233.41466797 145.74162109 -232.51683594 145.73324219 -231.59179688 145.72460938 C-230.31079102 145.71977539 -230.31079102 145.71977539 -229.00390625 145.71484375 C-228.21314697 145.70960693 -227.4223877 145.70437012 -226.60766602 145.69897461 C-224.75 145.8125 -224.75 145.8125 -223.75 146.8125 C-220.98568252 146.74724787 -218.2569753 146.61977936 -215.5 146.4375 C-214.35337891 146.37175781 -214.35337891 146.37175781 -213.18359375 146.3046875 C-209.29163014 146.06270013 -205.55763323 145.71110144 -201.75 144.8125 C-201.75 144.1525 -201.75 143.4925 -201.75 142.8125 C-201.09 142.8125 -200.43 142.8125 -199.75 142.8125 C-199.42 141.1625 -199.09 139.5125 -198.75 137.8125 C-198.09 137.8125 -197.43 137.8125 -196.75 137.8125 C-196.48058594 137.0803125 -196.21117187 136.348125 -195.93359375 135.59375 C-194.78614141 132.89742635 -193.47584792 130.71652447 -191.8125 128.3125 C-190.17674049 125.92025122 -188.6000222 123.55869142 -187.125 121.0625 C-185.75 118.8125 -185.75 118.8125 -183.5625 116.75 C-180.51648515 111.81335525 -180.6215022 107.43045644 -181.75 101.8125 C-183.87769101 96.56926143 -186.82184605 91.71197948 -189.62988281 86.81201172 C-193.76022875 79.43896611 -197.71316903 71.43129087 -195.75 62.8125 C-193.6875 60.125 -193.6875 60.125 -190.75 57.8125 C-189.57152912 56.63671356 -188.40544251 55.44842396 -187.25 54.25 C-184.58044808 51.52378306 -181.7531725 49.16657182 -178.75 46.8125 C-177.64823205 45.93906118 -176.5466825 45.06534681 -175.4453125 44.19140625 C-174.2554068 43.25235263 -173.0652992 42.31355479 -171.875 41.375 C-171.28847656 40.91029297 -170.70195312 40.44558594 -170.09765625 39.96679688 C-168.32440181 38.56962827 -166.5382289 37.19042781 -164.75 35.8125 C-164.15364746 35.33603027 -163.55729492 34.85956055 -162.94287109 34.36865234 C-158.26691569 30.77638379 -155.20285037 30.16855652 -149.28515625 30.4453125 C-146.17025569 30.89646913 -144.10356178 31.70241013 -141.75 33.8125 C-141.75 34.4725 -141.75 35.1325 -141.75 35.8125 C-141.028125 36.06 -140.30625 36.3075 -139.5625 36.5625 C-136.46428907 37.93948264 -134.32835686 39.62089667 -131.75 41.8125 C-129.12622969 43.93650454 -126.56051891 45.93882073 -123.75 47.8125 C-123.75 48.4725 -123.75 49.1325 -123.75 49.8125 C-123.09 49.8125 -122.43 49.8125 -121.75 49.8125 C-121.75 50.4725 -121.75 51.1325 -121.75 51.8125 C-116.0050275 54.11830529 -111.95645625 55.24475913 -105.75 53.8125 C-104.80125 53.668125 -103.8525 53.52375 -102.875 53.375 C-102.17375 53.189375 -101.4725 53.00375 -100.75 52.8125 C-100.42 52.1525 -100.09 51.4925 -99.75 50.8125 C-95.67178282 49.3171537 -91.55935446 48.0571007 -87.40234375 46.80078125 C-86.25894531 46.45402344 -85.11554688 46.10726562 -83.9375 45.75 C-82.85855469 45.42902344 -81.77960938 45.10804687 -80.66796875 44.77734375 C-77.03944441 43.63084798 -77.03944441 43.63084798 -73.75 41.8125 C-72.61739335 39.55723686 -72.61739335 39.55723686 -72 36.9375 C-71.63648438 35.64199219 -71.63648438 35.64199219 -71.265625 34.3203125 C-70.61573692 31.58620521 -70.61573692 31.58620521 -70.75 27.8125 C-70.09 27.8125 -69.43 27.8125 -68.75 27.8125 C-68.688125 26.6575 -68.62625 25.5025 -68.5625 24.3125 C-68.02674301 19.57369169 -66.8544368 15.12065073 -65.5 10.5625 C-65.30768799 9.87736328 -65.11537598 9.19222656 -64.91723633 8.48632812 C-63.45383712 3.76382772 -61.55184707 0.95315628 -57.75 -2.1875 C-44.4920795 -6.60680683 -11.66695188 -7.91686021 0 0 Z " fill="#0D2943" transform="translate(270.75,32.1875)"/>
<path d="M0 0 C0 0.99 0 1.98 0 3 C-0.66 3 -1.32 3 -2 3 C-2 3.66 -2 4.32 -2 5 C-2.86625 5.4125 -3.7325 5.825 -4.625 6.25 C-7.94004042 7.96890985 -10.92496688 9.88591473 -14 12 C-20 16 -20 16 -23 17.9375 C-26.08307103 19.98766488 -26.08307103 19.98766488 -29.0625 22.5625 C-31.62959532 24.69264292 -34.14651432 26.30333284 -37 28 C-37.53625 28.556875 -38.0725 29.11375 -38.625 29.6875 C-40 31 -40 31 -43 31 C-43.37125 31.928125 -43.37125 31.928125 -43.75 32.875 C-45.26029304 35.44249816 -46.36091208 35.71815729 -49 37 C-49.825 37.845625 -50.65 38.69125 -51.5 39.5625 C-53.99237287 41.99256355 -54.79846075 42.31395588 -58 43 C-58.33 43.99 -58.66 44.98 -59 46 C-60.485 46.495 -60.485 46.495 -62 47 C-62.495 47.66 -62.99 48.32 -63.5 49 C-65 51 -65 51 -68 52 C-68.7425 53.0209375 -68.7425 53.0209375 -69.5 54.0625 C-70.2425 55.0215625 -70.2425 55.0215625 -71 56 C-71.99 56 -72.98 56 -74 56 C-74.3403125 56.8971875 -74.3403125 56.8971875 -74.6875 57.8125 C-76.35899637 60.59832728 -78.2056404 61.37537232 -81 63 C-83.49382189 65.31569175 -85.66792771 67.52743558 -87.625 70.3125 C-88.305625 71.1478125 -88.305625 71.1478125 -89 72 C-89.99 72 -90.98 72 -92 72 C-92.3403125 72.86625 -92.3403125 72.86625 -92.6875 73.75 C-94.34726345 76.59530878 -96.42066667 77.93653334 -99 80 C-100.1839966 81.36010594 -101.34953223 82.73641798 -102.5 84.125 C-105.16241961 87.26885932 -107.06988552 88.65253218 -111 90 C-111.26554688 90.56332031 -111.53109375 91.12664062 -111.8046875 91.70703125 C-113.4303618 94.82556332 -115.81061781 97.02200418 -118.3125 99.4375 C-119.0230957 100.13456055 -119.0230957 100.13456055 -119.74804688 100.84570312 C-121.16266386 102.23322758 -122.58131512 103.61663507 -124 105 C-125.66920152 106.66412796 -127.3360107 108.33066026 -129 110 C-138 119 -138 119 -140.09375 121.0625 C-141.80061032 122.79734164 -143.37997603 124.56933413 -144.9375 126.4375 C-151.92398649 134.64132883 -151.92398649 134.64132883 -156 136 C-156.69658363 137.65438613 -157.36096883 139.32254318 -158 141 C-159.5 142.625 -159.5 142.625 -161 144 C-161.66 144.99 -162.32 145.98 -163 147 C-163.66 147 -164.32 147 -165 147 C-165.2475 147.61875 -165.495 148.2375 -165.75 148.875 C-167 151 -167 151 -169.0625 152 C-169.701875 152.33 -170.34125 152.66 -171 153 C-171.36162029 154.32594105 -171.69728039 155.65938457 -172 157 C-172.99 157.33 -173.98 157.66 -175 158 C-176.21869929 160.50447516 -176.21869929 160.50447516 -177 163 C-177.66 163 -178.32 163 -179 163 C-179.433125 163.86625 -179.433125 163.86625 -179.875 164.75 C-180.24625 165.4925 -180.6175 166.235 -181 167 C-181.33 167.721875 -181.66 168.44375 -182 169.1875 C-183 171 -183 171 -185 172 C-186.0064275 173.66279327 -187.00585407 175.32983484 -188 177 C-188.99727893 178.00271369 -189.99750313 179.00250312 -191 180 C-191.90036139 181.16838804 -192.77579415 182.35641929 -193.625 183.5625 C-194.05039062 184.16191406 -194.47578125 184.76132812 -194.9140625 185.37890625 C-196.06197843 187.01875831 -196.06197843 187.01875831 -197 189 C-197.66 189 -198.32 189 -199 189 C-199.24878906 189.71285156 -199.49757813 190.42570313 -199.75390625 191.16015625 C-201.13420628 194.3058557 -202.85788441 196.70727842 -204.9375 199.4375 C-207.14772919 202.34178247 -209.00465801 205.00939421 -210.62890625 208.28515625 C-212 211 -212 211 -214 212 C-215.04808041 213.97522846 -216.0520411 215.97481509 -217 218 C-217.66 218 -218.32 218 -219 218 C-219.29003906 218.95712891 -219.29003906 218.95712891 -219.5859375 219.93359375 C-219.84632813 220.75988281 -220.10671875 221.58617187 -220.375 222.4375 C-220.63023437 223.26121094 -220.88546875 224.08492187 -221.1484375 224.93359375 C-222 227 -222 227 -224 228 C-225.01765927 229.99107248 -226.01577854 231.99218823 -227 234 C-227.515625 234.680625 -228.03125 235.36125 -228.5625 236.0625 C-230.19311973 238.26029181 -231.07398901 240.43566188 -232 243 C-232.66 243 -233.32 243 -234 243 C-234.061875 243.845625 -234.12375 244.69125 -234.1875 245.5625 C-235.08425458 249.35646168 -236.46900454 251.30178608 -238.796875 254.33203125 C-240.30287175 256.41989038 -241.12902232 258.58806181 -242 261 C-242.66 261.99 -243.32 262.98 -244 264 C-244.4021875 265.2375 -244.4021875 265.2375 -244.8125 266.5 C-246.36991824 269.77877525 -247.64068806 270.65627523 -251 272 C-254.65629057 272.13295602 -256.93784187 271.93146753 -259.74609375 269.46875 C-262.1987035 266.69265455 -263.8189137 264.54325891 -265 261 C-265.99 260.34 -266.98 259.68 -268 259 C-268.495 257.4840625 -268.495 257.4840625 -269 255.9375 C-269.33 254.968125 -269.66 253.99875 -270 253 C-270.99 252.67 -271.98 252.34 -273 252 C-274.38389006 250.03464353 -275.70829199 248.027133 -277 246 C-277.84587411 244.86997533 -278.70564383 243.75023546 -279.578125 242.640625 C-280.01640625 242.08246094 -280.4546875 241.52429688 -280.90625 240.94921875 C-281.81569869 239.79918916 -282.72721898 238.65079527 -283.640625 237.50390625 C-287 233.21470424 -287 233.21470424 -287 231 C-287.66 231 -288.32 231 -289 231 C-289.2475 230.4225 -289.495 229.845 -289.75 229.25 C-290.93990475 226.86550111 -290.93990475 226.86550111 -293.125 224.875 C-294.053125 223.946875 -294.053125 223.946875 -295 223 C-295 222.34 -295 221.68 -295 221 C-295.99 220.67 -296.98 220.34 -298 220 C-299.69088222 218.02043058 -301.35830472 216.02054804 -303 214 C-303.66 213.67 -304.32 213.34 -305 213 C-305.391875 212.29875 -305.78375 211.5975 -306.1875 210.875 C-308.270175 207.57144656 -310.73304552 205.2037194 -313.57421875 202.55078125 C-315 201 -315 201 -315 199 C-315.66 199 -316.32 199 -317 199 C-318.55078125 197.4609375 -318.55078125 197.4609375 -320.3125 195.375 C-320.93511719 194.64539063 -321.55773437 193.91578125 -322.19921875 193.1640625 C-323.69079141 191.37158689 -325.1598624 189.56397989 -326.625 187.75 C-328.91946785 184.92400093 -328.91946785 184.92400093 -331.8125 182.75 C-332.534375 182.1725 -333.25625 181.595 -334 181 C-334 180.34 -334 179.68 -334 179 C-334.86625 178.6596875 -334.86625 178.6596875 -335.75 178.3125 C-338.57785592 176.66291738 -340.04782769 174.60289641 -342 172 C-343.90954107 169.97326517 -343.90954107 169.97326517 -346.0625 168.5625 C-348 167 -348 167 -349 164 C-349.34571287 158.64145052 -349.51362025 155.30701837 -346 151 C-344.25084532 149.41280409 -342.46933981 147.9003349 -340.62109375 146.4296875 C-338.74913641 144.90226456 -338.74913641 144.90226456 -337 142 C-336.01 142 -335.02 142 -334 142 C-333.67 141.01 -333.34 140.02 -333 139 C-331.29296875 137.8671875 -331.29296875 137.8671875 -329.1875 136.875 C-328.50042969 136.54242188 -327.81335938 136.20984375 -327.10546875 135.8671875 C-322.64880417 134.03160394 -318.82310738 133.90724794 -314 134 C-314 134.66 -314 135.32 -314 136 C-313.2575 136.268125 -312.515 136.53625 -311.75 136.8125 C-309.10938051 137.95276751 -307.14447156 139.09380306 -305 141 C-305 141.66 -305 142.32 -305 143 C-304.13375 143.1546875 -304.13375 143.1546875 -303.25 143.3125 C-300.64338842 144.10896465 -299.0264689 145.19065277 -297 147 C-297 147.66 -297 148.32 -297 149 C-296.34 149 -295.68 149 -295 149 C-295 149.66 -295 150.32 -295 151 C-293.63875 151.37125 -293.63875 151.37125 -292.25 151.75 C-288.86506135 153.05189948 -287.39206586 154.35164137 -285 157 C-284.34 157.33 -283.68 157.66 -283 158 C-283 158.99 -283 159.98 -283 161 C-282.42121094 161.09667969 -281.84242188 161.19335938 -281.24609375 161.29296875 C-278.53014587 162.14790191 -277.14627768 163.38552143 -275.0625 165.3125 C-272.75062872 167.42127231 -270.48287027 169.39862084 -268 171.3125 C-267.34 171.869375 -266.68 172.42625 -266 173 C-266 173.66 -266 174.32 -266 175 C-263.10765685 175.82638376 -261.11257569 176 -258 176 C-253.60755546 172.41930086 -250.36644355 167.38184248 -246.97851562 162.86914062 C-243.32325789 158.10775263 -243.32325789 158.10775263 -240 157 C-239.29605388 155.68596724 -238.63654342 154.3479743 -238 153 C-236.69864875 151.30824337 -235.36244796 149.64295195 -234 148 C-233.360625 147.175 -232.72125 146.35 -232.0625 145.5 C-229.10031676 141.90947486 -225.76608052 138.74739563 -222.4375 135.5 C-219.97111672 133.05921177 -219.97111672 133.05921177 -217.9375 130.375 C-216.09949972 128.1219674 -214.44847989 126.55070393 -212 125 C-211.34 125 -210.68 125 -210 125 C-209.76925781 124.43152344 -209.53851563 123.86304688 -209.30078125 123.27734375 C-207.66878795 120.42013025 -205.67320933 118.71280628 -203.1875 116.5625 C-196.51631633 110.8072043 -196.51631633 110.8072043 -191 104 C-189.34467377 102.98133771 -187.67739862 101.98189187 -186 101 C-185.443125 100.443125 -184.88625 99.88625 -184.3125 99.3125 C-183.879375 98.879375 -183.44625 98.44625 -183 98 C-182.34 98 -181.68 98 -181 98 C-181 97.01 -181 96.02 -181 95 C-179.9275 94.443125 -178.855 93.88625 -177.75 93.3125 C-175.15774452 91.8452834 -173.90675851 90.88344813 -172 88.5 C-169.37700426 85.22125533 -166.68256066 84.00866945 -163 82 C-161.98522743 81.01499409 -160.98610433 80.01370521 -160 79 C-158.68552291 77.93463752 -157.35113546 76.89346953 -156 75.875 C-155.319375 75.35679687 -154.63875 74.83859375 -153.9375 74.3046875 C-152 73 -152 73 -149 72 C-148.67 71.34 -148.34 70.68 -148 70 C-147.175 69.690625 -146.35 69.38125 -145.5 69.0625 C-144.675 68.711875 -143.85 68.36125 -143 68 C-142.67 67.01 -142.34 66.02 -142 65 C-140.3523962 64.28752268 -138.68236471 63.62599617 -137 63 C-135.63266972 62.04701223 -134.29735507 61.04625409 -133 60 C-129.22222222 57 -129.22222222 57 -127 57 C-127 56.34 -127 55.68 -127 55 C-125.865625 54.731875 -124.73125 54.46375 -123.5625 54.1875 C-122.386875 53.795625 -121.21125 53.40375 -120 53 C-119.67 52.01 -119.34 51.02 -119 50 C-117.34561387 49.30341637 -115.67745682 48.63903117 -114 48 C-113.525625 47.484375 -113.05125 46.96875 -112.5625 46.4375 C-110.28516033 44.3423475 -108.00290797 44.33365644 -105 44 C-105 43.34 -105 42.68 -105 42 C-103.9275 41.5875 -102.855 41.175 -101.75 40.75 C-99.16020542 39.66010649 -97.94357821 38.94186846 -95.9375 36.875 C-93.42105917 34.43973468 -91.42043392 34.31094854 -88 34 C-88 33.34 -88 32.68 -88 32 C-87.30132812 31.73445313 -86.60265625 31.46890625 -85.8828125 31.1953125 C-84.97273438 30.84210938 -84.06265625 30.48890625 -83.125 30.125 C-81.76761719 29.60292969 -81.76761719 29.60292969 -80.3828125 29.0703125 C-77.87782993 28.11469105 -77.87782993 28.11469105 -76 26 C-73.98559596 25.16066498 -71.94180335 24.48031584 -69.875 23.78125 C-67.80424247 23.05807568 -67.80424247 23.05807568 -66 21 C-64.00990532 20.3043222 -62.00799766 19.64217586 -60 19 C-57.86646598 18.10337558 -55.74188629 17.18525142 -53.625 16.25 C-48.26199658 13.91289797 -42.85225638 11.74257162 -37.375 9.6875 C-36.70033691 9.43323242 -36.02567383 9.17896484 -35.33056641 8.91699219 C-32.24274855 7.76988775 -29.1950703 6.78556481 -26 6 C-23.14165074 4.94347549 -20.30121091 3.84631523 -17.4609375 2.7421875 C-15 2 -15 2 -13 3 C-12.67 2.34 -12.34 1.68 -12 1 C-7.88769156 0.32585108 -4.16980357 0 0 0 Z " fill="#0E2A43" transform="translate(497,98)"/>
<path d="M0 0 C0 0.99 0 1.98 0 3 C-0.66 3 -1.32 3 -2 3 C-2 3.66 -2 4.32 -2 5 C-2.86625 5.4125 -3.7325 5.825 -4.625 6.25 C-7.94004042 7.96890985 -10.92496688 9.88591473 -14 12 C-16 13.33333333 -18 14.66666667 -20 16 C-21.0725 16.7425 -22.145 17.485 -23.25 18.25 C-26 20 -26 20 -28 20 C-28 18 -28 18 -27 17 C-27.33 16.34 -27.66 15.68 -28 15 C-28.125 12.4375 -28.125 12.4375 -28 10 C-27.67 9.67 -27.34 9.34 -27 9 C-27.99 8.01 -28.98 7.02 -30 6 C-29.01 5.896875 -28.02 5.79375 -27 5.6875 C-24.024739 5.28150715 -21.47318414 4.49029219 -18.6875 3.375 C-17.470625 2.92125 -16.25375 2.4675 -15 2 C-14.34 2.33 -13.68 2.66 -13 3 C-12.67 2.34 -12.34 1.68 -12 1 C-7.88769156 0.32585108 -4.16980357 0 0 0 Z " fill="#23384F" transform="translate(497,98)"/>
<path d="M0 0 C0.99 0.66 1.98 1.32 3 2 C3 2.66 3 3.32 3 4 C2.45859375 3.68289062 1.9171875 3.36578125 1.359375 3.0390625 C-1.4157149 1.81692026 -3.73208098 1.59056564 -6.75 1.375 C-8.22726562 1.26285156 -8.22726562 1.26285156 -9.734375 1.1484375 C-10.48203125 1.09945312 -11.2296875 1.05046875 -12 1 C-11.34 2.32 -10.68 3.64 -10 5 C-11.11375 5.4125 -12.2275 5.825 -13.375 6.25 C-16.72068115 7.67241534 -17.49409965 8.68701924 -19 12 C-22.75504405 15.00403524 -25.16600908 16.52259361 -30 16 C-30.99 16 -31.98 16 -33 16 C-32.38511719 15.52949219 -31.77023437 15.05898437 -31.13671875 14.57421875 C-29.92435547 13.64029297 -29.92435547 13.64029297 -28.6875 12.6875 C-27.88699219 12.07261719 -27.08648437 11.45773438 -26.26171875 10.82421875 C-24.36480715 9.29423997 -22.68832203 7.74878535 -21 6 C-14.73034626 -0.34686622 -8.7697491 -1.24767976 0 0 Z " fill="#2B4055" transform="translate(368,63)"/>
<path d="M0 0 C1.37478516 0.01740234 1.37478516 0.01740234 2.77734375 0.03515625 C3.69644531 0.04417969 4.61554688 0.05320313 5.5625 0.0625 C6.27277344 0.07410156 6.98304688 0.08570313 7.71484375 0.09765625 C8.20984375 2.07765625 8.20984375 2.07765625 8.71484375 4.09765625 C7.92980469 4.1234375 7.14476562 4.14921875 6.3359375 4.17578125 C-3.57014119 4.71058795 -8.36978436 6.81831742 -15.28515625 14.09765625 C-18.217698 16.67257096 -20.37295882 18.51807145 -24.28515625 19.09765625 C-24.28515625 18.43765625 -24.28515625 17.77765625 -24.28515625 17.09765625 C-22.82421875 15.6953125 -22.82421875 15.6953125 -20.91015625 14.16015625 C-18.44614101 12.17779008 -17.08049188 10.7906597 -15.28515625 8.09765625 C-14.29515625 8.09765625 -13.30515625 8.09765625 -12.28515625 8.09765625 C-11.95515625 7.10765625 -11.62515625 6.11765625 -11.28515625 5.09765625 C-9.47265625 3.96484375 -9.47265625 3.96484375 -7.28515625 2.97265625 C-0.91803436 0.03923224 -0.91803436 0.03923224 0 0 Z " fill="#3E4E5E" transform="translate(175.28515625,231.90234375)"/>
<path d="M0 0 C5.37514905 -0.04935509 10.75016685 -0.08569802 16.12548828 -0.10986328 C17.95493873 -0.11993484 19.78437303 -0.13359276 21.61376953 -0.15087891 C24.23994934 -0.17507677 26.86591675 -0.18647132 29.4921875 -0.1953125 C30.72350906 -0.21079636 30.72350906 -0.21079636 31.97970581 -0.22659302 C33.98789142 -0.22699184 35.99555382 -0.1224954 38 0 C38.66 0.66 39.32 1.32 40 2 C39.30028076 2.02505615 38.60056152 2.0501123 37.87963867 2.07592773 C34.64880582 2.19337867 31.41816098 2.31541636 28.1875 2.4375 C27.08728516 2.47681641 25.98707031 2.51613281 24.85351562 2.55664062 C18.57033575 2.79758853 12.37818197 3.20851228 6.13793945 3.99633789 C5.43241943 3.99754639 4.72689941 3.99875488 4 4 C2.66666667 2.66666667 1.33333333 1.33333333 0 0 Z " fill="#2A3849" transform="translate(220,119)"/>
<path d="M0 0 C2.76668133 0.26081866 5.53792656 0.41124979 8.3125 0.5625 C9.05306641 0.60568359 9.79363281 0.64886719 10.55664062 0.69335938 C12.37091464 0.79870432 14.1854355 0.89978316 16 1 C15.67 1.66 15.34 2.32 15 3 C10.60244863 4.03858463 6.31649282 4.13465486 1.8125 4.125 C0.60207031 4.12757813 -0.60835937 4.13015625 -1.85546875 4.1328125 C-5 4 -5 4 -8 3 C-9.99961564 2.96079185 -12.00049364 2.95556653 -14 3 C-14 2.34 -14 1.68 -14 1 C-14.99 0.67 -15.98 0.34 -17 0 C-15.10507254 -0.19644384 -13.20899097 -0.38177288 -11.3125 -0.5625 C-9.72888672 -0.71912109 -9.72888672 -0.71912109 -8.11328125 -0.87890625 C-5.12602788 -0.99509804 -2.90327339 -0.62213001 0 0 Z " fill="#6F7B86" transform="translate(232,457)"/>
<path d="M0 0 C4.63991402 8.21063047 6.20654319 19.696917 5 29 C3.625 32.1875 3.625 32.1875 2 34 C1.34 34 0.68 34 0 34 C0 32.68 0 31.36 0 30 C0.66 30 1.32 30 2 30 C2.42258938 22.33078541 1.44812673 15.60462347 -0.44140625 8.1640625 C-0.99576714 5.02397634 -0.85932369 3.0389328 0 0 Z " fill="#4B5F6C" transform="translate(468,205)"/>
<path d="M0 0 C0.33 0 0.66 0 1 0 C1.96676276 12.44892967 1.89735751 24.54743891 1 37 C0.01 37.495 0.01 37.495 -1 38 C-1.02475064 33.23112363 -1.04288403 28.46228479 -1.05493164 23.69335938 C-1.05995505 22.07160796 -1.06677494 20.44986105 -1.07543945 18.828125 C-1.08759229 16.49478031 -1.09324828 14.1614956 -1.09765625 11.828125 C-1.10281754 11.10506165 -1.10797882 10.38199829 -1.11329651 9.63702393 C-1.11366918 6.2798725 -1.04907619 3.20893892 0 0 Z " fill="#061A2E" transform="translate(384,251)"/>
<path d="M0 0 C0 0.99 0 1.98 0 3 C-3.61973402 4.31626692 -6.09567131 5 -10 5 C-10 5.66 -10 6.32 -10 7 C-13.375 7.625 -13.375 7.625 -17 8 C-17.66 7.34 -18.32 6.68 -19 6 C-12.93276008 0.15876042 -8.29923622 -0.82382124 0 0 Z " fill="#2B3E53" transform="translate(124,63)"/>
<path d="M0 0 C0 0.33 0 0.66 0 1 C-0.83402344 1.04898437 -1.66804688 1.09796875 -2.52734375 1.1484375 C-8.5040223 1.54551351 -14.13656949 2.14688361 -19.9453125 3.59375 C-23.30839841 4.25869474 -26.57756891 4.05610543 -30 4 C-33.27885532 4.21107293 -33.27885532 4.21107293 -36 5 C-36.99 6.485 -36.99 6.485 -38 8 C-38.66 7.67 -39.32 7.34 -40 7 C-30.53918813 -2.97220711 -13.01265628 -0.14334627 0 0 Z " fill="#566A78" transform="translate(248,28)"/>
<path d="M0 0 C0.33 0.66 0.66 1.32 1 2 C2.94603274 2.59070014 2.94603274 2.59070014 5 3 C5.66 3.33 6.32 3.66 7 4 C7 4.99 7 5.98 7 7 C7.639375 7.226875 8.27875 7.45375 8.9375 7.6875 C11 9 11 9 11.6875 11.375 C11.790625 12.24125 11.89375 13.1075 12 14 C12.32483418 15.33542939 12.6550855 16.66961551 13 18 C11.68 18 10.36 18 9 18 C8.82984375 17.38511719 8.6596875 16.77023437 8.484375 16.13671875 C7.03307142 11.07568406 7.03307142 11.07568406 3.9375 6.9375 C2.05867974 5.85481302 2.05867974 5.85481302 0 6 C-0.38218767 4.34385343 -0.71395102 2.67542976 -1 1 C-0.67 0.67 -0.34 0.34 0 0 Z " fill="#2E3D4F" transform="translate(452,321)"/>
<path d="M0 0 C0.33 0 0.66 0 1 0 C2.10765663 6.86747109 1.700773 12.26718787 0 19 C-0.99 19.33 -1.98 19.66 -3 20 C-2.649375 20.78375 -2.29875 21.5675 -1.9375 22.375 C-1.628125 23.24125 -1.31875 24.1075 -1 25 C-1.33 25.66 -1.66 26.32 -2 27 C-2.99 27 -3.98 27 -5 27 C-4.855625 25.865625 -4.71125 24.73125 -4.5625 23.5625 C-3.46038285 15.80401311 -3.46038285 15.80401311 -3 8 C-2.34 8 -1.68 8 -1 8 C-1.20625 7.4225 -1.4125 6.845 -1.625 6.25 C-2.08661261 3.48032433 -1.42944945 2.35438733 0 0 Z " fill="#415E6F" transform="translate(382,283)"/>
<path d="M0 0 C4.6192857 0.46192857 5.85927016 1.87108504 8.75 5.375 C7.76 5.705 6.77 6.035 5.75 6.375 C4.76 5.715 3.77 5.055 2.75 4.375 C0.06469311 4.31295694 0.06469311 4.31295694 -2.8125 4.6875 C-4.26849609 4.83638672 -4.26849609 4.83638672 -5.75390625 4.98828125 C-8.24174927 5.24379064 -8.24174927 5.24379064 -10.25 6.375 C-12.9223621 6.50915472 -15.57250488 6.41818541 -18.25 6.375 C-17.92 5.385 -17.59 4.395 -17.25 3.375 C-16.033125 3.41625 -14.81625 3.4575 -13.5625 3.5 C-10.02817381 3.50626654 -7.43739261 3.01699013 -4.25 1.375 C-3.25 0.375 -3.25 0.375 0 0 Z " fill="#304455" transform="translate(81.25,375.625)"/>
<path d="M0 0 C-3.52550719 3.33691565 -6.1991426 3.35340073 -10.953125 3.29296875 C-11.94345734 3.28660149 -11.94345734 3.28660149 -12.95379639 3.28010559 C-15.05295391 3.26337435 -17.15113496 3.22573551 -19.25 3.1875 C-20.67706942 3.17244584 -22.10415396 3.15875871 -23.53125 3.14648438 C-27.02114817 3.11349001 -30.5104787 3.06174743 -34 3 C-33.67 2.34 -33.34 1.68 -33 1 C-29.37516606 0.8295902 -25.75011226 0.66437396 -22.125 0.5 C-21.11179688 0.45230469 -20.09859375 0.40460938 -19.0546875 0.35546875 C-12.69773104 0.0702207 -6.36317946 -0.06350831 0 0 Z " fill="#071C2F" transform="translate(261,411)"/>
<path d="M0 0 C3 2 3 2 3.58203125 4.4609375 C3.65808594 5.42257812 3.73414063 6.38421875 3.8125 7.375 C3.90144531 8.33148438 3.99039063 9.28796875 4.08203125 10.2734375 C3.99667463 13.110529 3.46845585 14.60738082 2 17 C1.01 17 0.02 17 -1 17 C-1 17.66 -1 18.32 -1 19 C-0.34 19.33 0.32 19.66 1 20 C-1.35438733 21.42944945 -2.48032433 22.08661261 -5.25 21.625 C-6.11625 21.315625 -6.11625 21.315625 -7 21 C-6.21625 20.236875 -5.4325 19.47375 -4.625 18.6875 C-0.87302881 14.90022624 -0.87302881 14.90022624 0.1953125 9.86328125 C0.17210937 8.69152344 0.14890625 7.51976562 0.125 6.3125 C0.10695313 5.13300781 0.08890625 3.95351563 0.0703125 2.73828125 C0.04710937 1.83464844 0.02390625 0.93101562 0 0 Z " fill="#2D4051" transform="translate(50,287)"/>
<path d="M0 0 C-2.29882169 2.96931135 -3.66623851 3.92583078 -7.375 4.75 C-13.55967608 5.25559139 -19.80077235 5.07836102 -26 5 C-22.38019844 2.86690265 -18.57783442 2.18576282 -14.5 1.4375 C-9.57549836 0.54150422 -9.57549836 0.54150422 -4.71875 -0.65234375 C-3 -1 -3 -1 0 0 Z " fill="#374757" transform="translate(310,490)"/>
<path d="M0 0 C4.91325708 3.00254599 6.26478564 6.45141468 8.10546875 11.66015625 C8.98300098 14.21392266 8.98300098 14.21392266 11 17 C10.625 20.1875 10.625 20.1875 10 23 C7.5954138 20.02055646 5.98471067 17.05948713 4.4375 13.5625 C4.02371094 12.63566406 3.60992188 11.70882813 3.18359375 10.75390625 C2.79300781 9.84511719 2.40242188 8.93632812 2 8 C1.61972656 7.12214844 1.23945313 6.24429687 0.84765625 5.33984375 C0 3 0 3 0 0 Z " fill="#394A5A" transform="translate(19,346)"/>
<path d="M0 0 C1.77697266 0.47566406 1.77697266 0.47566406 3.58984375 0.9609375 C10.18760937 2.42710764 16.82930528 2.45968371 23.5625 2.625 C24.85736328 2.66367187 26.15222656 2.70234375 27.48632812 2.7421875 C30.65741576 2.83579894 33.82850755 2.92153403 37 3 C37 3.33 37 3.66 37 4 C36.04109863 4.02505615 35.08219727 4.0501123 34.09423828 4.07592773 C30.54201523 4.1699862 26.98998844 4.27021058 23.43798828 4.37231445 C21.89962347 4.41566926 20.36121037 4.45734395 18.82275391 4.49731445 C16.6134586 4.55500398 14.40440652 4.61870179 12.1953125 4.68359375 C11.50567413 4.70030624 10.81603577 4.71701874 10.10549927 4.73423767 C6.42885736 4.80806995 6.42885736 4.80806995 3 6 C3 5.34 3 4.68 3 4 C2.01 3.67 1.02 3.34 0 3 C0 2.01 0 1.02 0 0 Z " fill="#546475" transform="translate(214,408)"/>
<path d="M0 0 C2 1.75 2 1.75 4 4 C4 5.32 4 6.64 4 8 C4.66 8 5.32 8 6 8 C8.84450614 11.71973879 9.3227506 14.37390802 9 19 C6.69 18.01 4.38 17.02 2 16 C2.66 14.68 3.32 13.36 4 12 C3.34 11.34 2.68 10.68 2 10 C0.72677271 7.67823258 -0.15862416 5.52412752 -1 3 C-0.67 2.01 -0.34 1.02 0 0 Z " fill="#273A4C" transform="translate(111,330)"/>
<path d="M0 0 C6.27 0 12.54 0 19 0 C18.67 0.99 18.34 1.98 18 3 C11.07 3 4.14 3 -3 3 C-3 3.99 -3 4.98 -3 6 C-4.98 6.66 -6.96 7.32 -9 8 C-8.67 7.01 -8.34 6.02 -8 5 C-7.34 5 -6.68 5 -6 5 C-6 4.34 -6 3.68 -6 3 C-4.02 2.34 -2.04 1.68 0 1 C0 0.67 0 0.34 0 0 Z " fill="#374055" transform="translate(27,178)"/>
<path d="M0 0 C1.32 0.33 2.64 0.66 4 1 C4.33 2.32 4.66 3.64 5 5 C7.97 5.495 7.97 5.495 11 6 C11.061875 6.53625 11.12375 7.0725 11.1875 7.625 C11.93956363 10.31377138 11.93956363 10.31377138 14.625 13 C17 16 17 16 16.8125 18.375 C16.544375 18.91125 16.27625 19.4475 16 20 C11 14.25 11 14.25 11 12 C10.34 12 9.68 12 9 12 C8.7525 11.4225 8.505 10.845 8.25 10.25 C7.06009525 7.86550111 7.06009525 7.86550111 4.875 5.875 C4.25625 5.25625 3.6375 4.6375 3 4 C3 3.34 3 2.68 3 2 C2.01 1.67 1.02 1.34 0 1 C0 0.67 0 0.34 0 0 Z " fill="#455566" transform="translate(199,317)"/>
<path d="M0 0 C0.66 0.33 1.32 0.66 2 1 C0 3 0 3 -1.875 3.8125 C-4.21164167 4.93647103 -4.21164167 4.93647103 -5.9375 7.5 C-8.24343768 10.29507598 -9.5299265 11.09117123 -13 12 C-16.3125 12.125 -16.3125 12.125 -19 12 C-15.51253602 9.02539837 -12.08393961 7.04196981 -8 5 C-6.32576317 3.67618483 -4.65788785 2.34423339 -3 1 C-2.01 0.67 -1.02 0.34 0 0 Z " fill="#354557" transform="translate(319,386)"/>
<path d="M0 0 C-1 2 -1 2 -3.1875 3.1875 C-5.80501779 4.8743448 -7.0898642 6.18346782 -9 8.5625 C-11.38789045 11.49477998 -13.24824727 13.00688898 -17 14 C-17.33 13.34 -17.66 12.68 -18 12 C-17.01 12 -16.02 12 -15 12 C-15 10.68 -15 9.36 -15 8 C-13.35 7.34 -11.7 6.68 -10 6 C-10 5.01 -10 4.02 -10 3 C-6.8813507 -0.23859735 -4.36016811 -0.29728419 0 0 Z " fill="#415668" transform="translate(151,155)"/>
<path d="M0 0 C0.66 0.66 1.32 1.32 2 2 C2.99 2.33 3.98 2.66 5 3 C5.66 3.33 6.32 3.66 7 4 C0.8028169 9.35211268 0.8028169 9.35211268 -3 11 C-3.7425 11.37125 -4.485 11.7425 -5.25 12.125 C-5.8275 12.41375 -6.405 12.7025 -7 13 C-7.33 12.34 -7.66 11.68 -8 11 C-7.67 10.67 -7.34 10.34 -7 10 C-7.33 9.34 -7.66 8.68 -8 8 C-7.67 7.01 -7.34 6.02 -7 5 C-4.36 5.33 -1.72 5.66 1 6 C0.34 4.35 -0.32 2.7 -1 1 C-0.67 0.67 -0.34 0.34 0 0 Z " fill="#2A4155" transform="translate(477,105)"/>
<path d="M0 0 C1.23556641 0.01740234 1.23556641 0.01740234 2.49609375 0.03515625 C3.32238281 0.04417969 4.14867187 0.05320312 5 0.0625 C5.63808594 0.07410156 6.27617187 0.08570313 6.93359375 0.09765625 C5.94359375 0.59265625 5.94359375 0.59265625 4.93359375 1.09765625 C4.93359375 1.75765625 4.93359375 2.41765625 4.93359375 3.09765625 C2.95359375 3.09765625 0.97359375 3.09765625 -1.06640625 3.09765625 C-1.06640625 3.75765625 -1.06640625 4.41765625 -1.06640625 5.09765625 C-3.37640625 5.42765625 -5.68640625 5.75765625 -8.06640625 6.09765625 C-8.06640625 5.43765625 -8.06640625 4.77765625 -8.06640625 4.09765625 C-11.03640625 4.09765625 -14.00640625 4.09765625 -17.06640625 4.09765625 C-17.06640625 3.76765625 -17.06640625 3.43765625 -17.06640625 3.09765625 C-16.06738281 2.96488281 -15.06835938 2.83210938 -14.0390625 2.6953125 C-12.74871094 2.51871094 -11.45835937 2.34210938 -10.12890625 2.16015625 C-8.84113281 1.98613281 -7.55335938 1.81210937 -6.2265625 1.6328125 C-3.38461575 1.1515434 -2.61413589 0.12354139 0 0 Z " fill="#485866" transform="translate(269.06640625,406.90234375)"/>
<path d="M0 0 C0.33 0.66 0.66 1.32 1 2 C0.34 2 -0.32 2 -1 2 C-1 2.66 -1 3.32 -1 4 C-2.051875 4.433125 -3.10375 4.86625 -4.1875 5.3125 C-7.29460982 6.63870541 -10.14518195 8.1832976 -13 10 C-13.33 8.68 -13.66 7.36 -14 6 C-12.02 5.34 -10.04 4.68 -8 4 C-8 3.34 -8 2.68 -8 2 C-5.36 1.34 -2.72 0.68 0 0 Z " fill="#5E7281" transform="translate(361,466)"/>
<path d="M0 0 C4.33767234 0.54220904 8.00207459 1.71235633 12.03125 3.30078125 C14.64462519 4.22894426 17.25459138 4.65682392 20 5 C19.67 6.32 19.34 7.64 19 9 C17.33650055 8.52471444 15.67329705 8.04836507 14.01171875 7.56640625 C12.10108561 7.028461 10.17565445 6.54391361 8.25 6.0625 C5.14946486 5.04886351 3.96590373 4.48324682 2 2 C1.34 1.34 0.68 0.68 0 0 Z " fill="#405363" transform="translate(193,403)"/>
<path d="M0 0 C0.33 1.32 0.66 2.64 1 4 C0.34 4 -0.32 4 -1 4 C-1 5.65 -1 7.3 -1 9 C-1.66 9 -2.32 9 -3 9 C-2.67 10.65 -2.34 12.3 -2 14 C-2.99 14.66 -3.98 15.32 -5 16 C-5 15.34 -5 14.68 -5 14 C-6.98 14.66 -8.96 15.32 -11 16 C-10.60167969 15.48050781 -10.20335937 14.96101563 -9.79296875 14.42578125 C-7.45126486 11.34339243 -5.20303277 8.34805618 -3.25 5 C-2.8375 4.34 -2.425 3.68 -2 3 C-1.34 3 -0.68 3 0 3 C0 2.01 0 1.02 0 0 Z " fill="#455566" transform="translate(361,342)"/>
<path d="M0 0 C0.99 0.33 1.98 0.66 3 1 C3.33 3.64 3.66 6.28 4 9 C4.66 9 5.32 9 6 9 C5.34 10.98 4.68 12.96 4 15 C3.34 15 2.68 15 2 15 C2 15.66 2 16.32 2 17 C1.01 16.67 0.02 16.34 -1 16 C-0.505 15.484375 -0.01 14.96875 0.5 14.4375 C2.49649241 11.19319983 2.21564385 8.73782666 2 5 C1.01 4.67 0.02 4.34 -1 4 C-0.67 2.68 -0.34 1.36 0 0 Z " fill="#0D243A" transform="translate(457,330)"/>
<path d="M0 0 C0.7734375 0.495 0.7734375 0.495 1.5625 1 C4.78026512 2.32010877 7.5570528 2.13242105 11 2 C11.33 2.99 11.66 3.98 12 5 C11.01 6.485 11.01 6.485 10 8 C9.67 8.99 9.34 9.98 9 11 C7.49703315 9.35687553 5.99769719 7.71042916 4.5 6.0625 C3.6646875 5.14597656 2.829375 4.22945313 1.96875 3.28515625 C0 1 0 1 0 0 Z " fill="#344859" transform="translate(91,384)"/>
<path d="M0 0 C-1.41043479 3.36165806 -3.01526034 5.09505232 -5.9375 7.25 C-6.97197266 8.03117188 -6.97197266 8.03117188 -8.02734375 8.828125 C-10 10 -10 10 -13 10 C-10.65226252 3.923503 -6.87867828 0 0 0 Z " fill="#3B4D5E" transform="translate(337,180)"/>
<path d="M0 0 C3.69876091 1.37287342 6.9514476 3.06355453 10.3125 5.125 C11.19550781 5.66382813 12.07851563 6.20265625 12.98828125 6.7578125 C13.98408203 7.37269531 13.98408203 7.37269531 15 8 C14.67 8.99 14.34 9.98 14 11 C13.34773438 10.60167969 12.69546875 10.20335937 12.0234375 9.79296875 C7.42446348 7.00509512 2.86143779 4.30278632 -2 2 C-1.34 1.34 -0.68 0.68 0 0 Z " fill="#374859" transform="translate(307,135)"/>
<path d="M0 0 C2.48046875 -0.48828125 2.48046875 -0.48828125 5.1875 -0.3125 C6.08855469 -0.26738281 6.98960937 -0.22226563 7.91796875 -0.17578125 C8.94857422 -0.08876953 8.94857422 -0.08876953 10 0 C10.33 1.32 10.66 2.64 11 4 C6.38 4.33 1.76 4.66 -3 5 C-2.01 3.35 -1.02 1.7 0 0 Z " fill="#091C2F" transform="translate(173,232)"/>
<path d="M0 0 C0.94547564 2.54640371 1.12400774 3.6732764 0.14453125 6.25390625 C-0.29503906 7.01574219 -0.73460938 7.77757812 -1.1875 8.5625 C-1.61417969 9.32691406 -2.04085937 10.09132812 -2.48046875 10.87890625 C-4.08979593 13.12534496 -5.7160168 14.46919327 -8 16 C-8.33 15.34 -8.66 14.68 -9 14 C-8.67 13.01 -8.34 12.02 -8 11 C-7.34 11 -6.68 11 -6 11 C-5.7525 10.29875 -5.505 9.5975 -5.25 8.875 C-3.83911974 5.62997541 -2.02104602 2.89683263 0 0 Z " fill="#475A6A" transform="translate(80,159)"/>
<path d="M0 0 C1.99488234 0.36270588 3.9937811 0.70640699 6 1 C6 1.66 6 2.32 6 3 C8.475 3.495 8.475 3.495 11 4 C7.56469564 5.18458771 5.58851075 4.79259109 2.1875 3.625 C-1.91089604 2.29529817 -5.72267737 1.46492637 -10 1 C-10 0.34 -10 -0.32 -10 -1 C-6.01941121 -2.32686293 -3.97160971 -1.21167754 0 0 Z " fill="#384658" transform="translate(271,122)"/>
<path d="M0 0 C0.99 0.33 1.98 0.66 3 1 C1.53089245 5.65217391 1.53089245 5.65217391 -0.8125 7.1875 C-1.8953125 7.5896875 -1.8953125 7.5896875 -3 8 C-3.763125 8.391875 -4.52625 8.78375 -5.3125 9.1875 C-8.80678776 10.24391258 -11.45737895 9.69463158 -15 9 C-15 8.67 -15 8.34 -15 8 C-13.453125 7.87625 -13.453125 7.87625 -11.875 7.75 C-7.63586911 6.92952305 -5.36275199 5.65892018 -2 3 C-1.34 2.01 -0.68 1.02 0 0 Z " fill="#3A4C63" transform="translate(332,80)"/>
<path d="M0 0 C3 1 3 1 5 4 C5.495 4.45375 5.99 4.9075 6.5 5.375 C8.36421905 7.39457064 9.09589738 9.42678486 10 12 C2.54977376 9.18099548 2.54977376 9.18099548 0.3125 4.375 C-0.3371875 2.704375 -0.3371875 2.704375 -1 1 C-0.67 0.67 -0.34 0.34 0 0 Z " fill="#415766" transform="translate(109,455)"/>
<path d="M0 0 C0.33 0 0.66 0 1 0 C1 10.23 1 20.46 1 31 C0.67 31 0.34 31 0 31 C-0.98554972 25.02872819 -1.31055351 19.10508542 -1.5625 13.0625 C-1.60568359 12.09248047 -1.64886719 11.12246094 -1.69335938 10.12304688 C-1.79862093 7.74881399 -1.90075707 5.37449079 -2 3 C-1.34 3 -0.68 3 0 3 C0 2.01 0 1.02 0 0 Z " fill="#1E3350" transform="translate(96,253)"/>
<path d="M0 0 C1.65 0 3.3 0 5 0 C5.66 1.32 6.32 2.64 7 4 C4.64031256 6.09749995 3.45383006 6.96905704 0.25 7.1875 C-0.86375 7.0946875 -0.86375 7.0946875 -2 7 C-1.34 4.69 -0.68 2.38 0 0 Z " fill="#26384C" transform="translate(165,136)"/>
<path d="M0 0 C2.875 1.25 2.875 1.25 4.875 3.25 C7.44561311 3.89767793 7.44561311 3.89767793 9.875 4.25 C9.875 4.58 9.875 4.91 9.875 5.25 C3.17373464 5.73736475 -1.19061592 4.32708804 -7.125 1.25 C-3.515625 -0.84375 -3.515625 -0.84375 0 0 Z " fill="#2C3C4C" transform="translate(313.125,84.75)"/>
<path d="M0 0 C0.77923828 0.00902344 1.55847656 0.01804688 2.36132812 0.02734375 C4.26185447 0.05066309 6.16222008 0.08652414 8.0625 0.125 C8.0625 0.455 8.0625 0.785 8.0625 1.125 C4.4325 1.125 0.8025 1.125 -2.9375 1.125 C-2.9375 1.785 -2.9375 2.445 -2.9375 3.125 C-7.59287393 3.96296731 -11.30828475 4.1411692 -15.9375 3.125 C-15.9375 2.795 -15.9375 2.465 -15.9375 2.125 C-10.46690419 0.27967286 -5.74930072 -0.12809068 0 0 Z " fill="#243849" transform="translate(55.9375,178.875)"/>
<path d="M0 0 C9.99562363 -0.63019694 9.99562363 -0.63019694 14.1875 2 C15.0846875 2.99 15.0846875 2.99 16 4 C13.525 5.485 13.525 5.485 11 7 C10.01 6.34 9.02 5.68 8 5 C8 4.01 8 3.02 8 2 C5.36 2 2.72 2 0 2 C0 1.34 0 0.68 0 0 Z " fill="#081D33" transform="translate(356,64)"/>
<path d="M0 0 C1.32 0.66 2.64 1.32 4 2 C3.67 3.32 3.34 4.64 3 6 C2.34 6 1.68 6 1 6 C2.32 7.32 3.64 8.64 5 10 C4.67 10.66 4.34 11.32 4 12 C0.40401099 10.10737421 -1.51867154 8.82676519 -3 5 C-3.33 4.34 -3.66 3.68 -4 3 C-3.01 2.67 -2.02 2.34 -1 2 C-0.67 1.34 -0.34 0.68 0 0 Z " fill="#42556C" transform="translate(276,482)"/>
<path d="M0 0 C0 0.99 0 1.98 0 3 C-0.66 3 -1.32 3 -2 3 C-2.268125 3.804375 -2.53625 4.60875 -2.8125 5.4375 C-3.204375 6.283125 -3.59625 7.12875 -4 8 C-4.99 8.33 -5.98 8.66 -7 9 C-8.20882096 11.00016466 -8.20882096 11.00016466 -9 13 C-9.33 13 -9.66 13 -10 13 C-10.33 11.02 -10.66 9.04 -11 7 C-7.25 5.875 -7.25 5.875 -5 7 C-5 6.01 -5 5.02 -5 4 C-4.34 4 -3.68 4 -3 4 C-2.67 3.01 -2.34 2.02 -2 1 C-1.34 0.67 -0.68 0.34 0 0 Z " fill="#394858" transform="translate(382,390)"/>
<path d="M0 0 C0.66 0.33 1.32 0.66 2 1 C4.09821215 0.60061233 4.09821215 0.60061233 6 0 C5.01 1.485 5.01 1.485 4 3 C3.01 3 2.02 3 1 3 C1 3.66 1 4.32 1 5 C-1.3125 7.1875 -1.3125 7.1875 -4 9 C-4.99 8.67 -5.98 8.34 -7 8 C-6.01 7.67 -5.02 7.34 -4 7 C-3.67 5.02 -3.34 3.04 -3 1 C-2.01 0.67 -1.02 0.34 0 0 Z " fill="#072038" transform="translate(468,113)"/>
<path d="M0 0 C1.70349609 0.00580078 1.70349609 0.00580078 3.44140625 0.01171875 C6.4375 0.3125 6.4375 0.3125 9.4375 2.3125 C9.4375 2.9725 9.4375 3.6325 9.4375 4.3125 C8.89609375 3.99539062 8.3546875 3.67828125 7.796875 3.3515625 C5.0217851 2.12942026 2.70541902 1.90306564 -0.3125 1.6875 C-1.78976562 1.57535156 -1.78976562 1.57535156 -3.296875 1.4609375 C-4.04453125 1.41195312 -4.7921875 1.36296875 -5.5625 1.3125 C-4.9025 2.6325 -4.2425 3.9525 -3.5625 5.3125 C-4.5525 5.8075 -4.5525 5.8075 -5.5625 6.3125 C-6.2225 5.6525 -6.8825 4.9925 -7.5625 4.3125 C-8.5525 3.9825 -9.5425 3.6525 -10.5625 3.3125 C-7.12620221 0.11260599 -4.61819736 -0.06830098 0 0 Z M-9.5625 5.3125 C-7.5625 6.3125 -7.5625 6.3125 -7.5625 6.3125 Z " fill="#5F6E7A" transform="translate(361.5625,62.6875)"/>
<path d="M0 0 C2.73171252 2.73171252 2.77158677 5.28787261 3.4375 9.00390625 C3.623125 9.66261719 3.80875 10.32132812 4 11 C4.66 11.33 5.32 11.66 6 12 C6.625 14.5625 6.625 14.5625 7 17 C5.68 16.67 4.36 16.34 3 16 C3 14.02 3 12.04 3 10 C2.34 10 1.68 10 1 10 C0.34 8.35 -0.32 6.7 -1 5 C-0.34 5 0.32 5 1 5 C0.67 3.35 0.34 1.7 0 0 Z " fill="#4D6270" transform="translate(104,313)"/>
<path d="M0 0 C0.33 0.66 0.66 1.32 1 2 C1.66 2 2.32 2 3 2 C4.42258812 5.82320557 5.24042276 8.91281305 5 13 C3.68 12.67 2.36 12.34 1 12 C0.67 8.04 0.34 4.08 0 0 Z " fill="#2A3D50" transform="translate(463,192)"/>
<path d="M0 0 C4.29165262 -0.02891949 8.58328036 -0.04677118 12.875 -0.0625 C14.70998047 -0.07506836 14.70998047 -0.07506836 16.58203125 -0.08789062 C18.33193359 -0.09272461 18.33193359 -0.09272461 20.1171875 -0.09765625 C21.73536377 -0.10551147 21.73536377 -0.10551147 23.38623047 -0.11352539 C26 0 26 0 28 1 C28 1.66 28 2.32 28 3 C26.906875 2.83628906 25.81375 2.67257813 24.6875 2.50390625 C19.45545742 1.84990093 14.26506338 1.89029598 9 1.9375 C8.03449219 1.94201172 7.06898438 1.94652344 6.07421875 1.95117188 C3.71607911 1.96284583 1.35807398 1.97921979 -1 2 C-0.67 1.34 -0.34 0.68 0 0 Z " fill="#0A2138" transform="translate(430,181)"/>
<path d="M0 0 C0.66 0 1.32 0 2 0 C2.336611 1.77021322 2.66917293 3.54119674 3 5.3125 C3.185625 6.29863281 3.37125 7.28476562 3.5625 8.30078125 C4 11 4 11 4 14 C4.66 14.33 5.32 14.66 6 15 C6.33 15.99 6.66 16.98 7 18 C5.35 17.67 3.7 17.34 2 17 C1.93941406 16.19175781 1.87882812 15.38351563 1.81640625 14.55078125 C1.73261719 13.48214844 1.64882813 12.41351563 1.5625 11.3125 C1.48128906 10.25675781 1.40007812 9.20101562 1.31640625 8.11328125 C1.03548319 5.34913703 0.59843148 2.71054259 0 0 Z " fill="#657181" transform="translate(274,47)"/>
<path d="M0 0 C1.6256807 0.30893932 3.25052748 0.6222695 4.875 0.9375 C5.77992188 1.11152344 6.68484375 1.28554688 7.6171875 1.46484375 C10 2 10 2 12 3 C12.75 4.9375 12.75 4.9375 13 7 C12.34 7.66 11.68 8.32 11 9 C9.54033966 7.87672229 8.08231636 6.75131706 6.625 5.625 C5.81289062 4.99851562 5.00078125 4.37203125 4.1640625 3.7265625 C2 2 2 2 0 0 Z " fill="#3D566E" transform="translate(248,459)"/>
<path d="M0 0 C1.875 0.625 1.875 0.625 4 2 C4.66666667 4 5.33333333 6 6 8 C7.9001177 9.24174796 7.9001177 9.24174796 10 10 C11.75 11.625 11.75 11.625 13 13 C12.67 13.66 12.34 14.32 12 15 C11.401875 14.360625 10.80375 13.72125 10.1875 13.0625 C8.09189663 10.79689611 8.09189663 10.79689611 5 10 C5 9.34 5 8.68 5 8 C4.34 8 3.68 8 3 8 C1.92474806 5.34771188 0.90543849 2.71631546 0 0 Z " fill="#627687" transform="translate(127,356)"/>
<path d="M0 0 C0.99 0 1.98 0 3 0 C3.05389087 1.95803507 3.09274217 3.91648909 3.125 5.875 C3.14820313 6.96554687 3.17140625 8.05609375 3.1953125 9.1796875 C3 12 3 12 1 14 C-0.125 7.25 -0.125 7.25 1 5 C0.34 5 -0.32 5 -1 5 C-0.67 3.35 -0.34 1.7 0 0 Z " fill="#0A2033" transform="translate(428,266)"/>
<path d="M0 0 C0.66 0.33 1.32 0.66 2 1 C0.68 3.64 -0.64 6.28 -2 9 C-2.33 8.34 -2.66 7.68 -3 7 C-3.66 7 -4.32 7 -5 7 C-5.12375 7.61875 -5.2475 8.2375 -5.375 8.875 C-6 11 -6 11 -8 13 C-8.33 12.34 -8.66 11.68 -9 11 C-7.02068691 6.93141197 -4.2623818 4.0906775 -1 1 C-0.67 0.67 -0.34 0.34 0 0 Z " fill="#54626F" transform="translate(385,217)"/>
<path d="M0 0 C2.4375 0.8125 2.4375 0.8125 5 2 C5.33 2.99 5.66 3.98 6 5 C8.01508358 5.73323796 8.01508358 5.73323796 10 6 C10 6.99 10 7.98 10 9 C5.58968355 8.49111733 3.10672401 5.96550928 0 3 C0 2.01 0 1.02 0 0 Z " fill="#334A59" transform="translate(186,236)"/>
<path d="M0 0 C0.66 0.33 1.32 0.66 2 1 C1.60167969 1.58007812 1.20335938 2.16015625 0.79296875 2.7578125 C-2.12751607 7.0639288 -4.81884446 11.274163 -7 16 C-8.0326802 13.21176345 -8.04509293 12.1322726 -7.0625 9.25 C-6.711875 8.5075 -6.36125 7.765 -6 7 C-5.01 7 -4.02 7 -3 7 C-2.67 5.35 -2.34 3.7 -2 2 C-1.34 2 -0.68 2 0 2 C0 1.34 0 0.68 0 0 Z " fill="#475B69" transform="translate(122,183)"/>
<path d="M0 0 C0.66 0.66 1.32 1.32 2 2 C-3.625 7 -3.625 7 -7 7 C-7.33 7.99 -7.66 8.98 -8 10 C-10.0625 10.6875 -10.0625 10.6875 -12 11 C-12 10.34 -12 9.68 -12 9 C-11.01 8.67 -10.02 8.34 -9 8 C-7.78130071 5.49552484 -7.78130071 5.49552484 -7 3 C-6.01 3 -5.02 3 -4 3 C-4 2.34 -4 1.68 -4 1 C-2.125 0.375 -2.125 0.375 0 0 Z " fill="#485F74" transform="translate(446,134)"/>
<path d="M0 0 C3 1 3 1 5 3 C5.99 3.66 6.98 4.32 8 5 C8 5.66 8 6.32 8 7 C8.66 7.33 9.32 7.66 10 8 C8.3125 8.75 8.3125 8.75 6 9 C3.38662752 7.19552853 1.2417019 5.2417019 -1 3 C-0.67 2.01 -0.34 1.02 0 0 Z " fill="#3A4860" transform="translate(139,75)"/>
<path d="M0 0 C0.33 0.66 0.66 1.32 1 2 C2.94603274 2.59070014 2.94603274 2.59070014 5 3 C5.66 3.33 6.32 3.66 7 4 C7 4.99 7 5.98 7 7 C7.66 7.33 8.32 7.66 9 8 C5.97580475 7.41196203 2.98241547 6.77321882 0 6 C-0.38218767 4.34385343 -0.71395102 2.67542976 -1 1 C-0.67 0.67 -0.34 0.34 0 0 Z " fill="#404D60" transform="translate(452,321)"/>
<path d="M0 0 C0.66 0.33 1.32 0.66 2 1 C1.34 1.66 0.68 2.32 0 3 C-0.20625 3.721875 -0.4125 4.44375 -0.625 5.1875 C-2.72682854 9.48669473 -6.32116915 12.03126905 -10 15 C-10 11.28151944 -9.15593473 10.72513871 -6.6875 8.0625 C-4.29953617 5.46427521 -2.07620151 2.85557562 0 0 Z " fill="#536C83" transform="translate(255,255)"/>
<path d="M0 0 C-0.33 0.66 -0.66 1.32 -1 2 C-2.32 1.67 -3.64 1.34 -5 1 C-4.67 2.65 -4.34 4.3 -4 6 C-7.75 7.125 -7.75 7.125 -10 6 C-10.625 3.9375 -10.625 3.9375 -11 2 C-9.54494642 1.47007308 -8.08581873 0.9513211 -6.625 0.4375 C-5.81289063 0.14746094 -5.00078125 -0.14257812 -4.1640625 -0.44140625 C-2 -1 -2 -1 0 0 Z " fill="#354A5C" transform="translate(457,111)"/>
<path d="M0 0 C-1.57791766 3.15583533 -3.77757242 3.71102897 -7 5 C-9.72521945 5.23974103 -12.25534258 5.14196504 -15 5 C-10.48631832 1.18073088 -5.90250682 -0.34720628 0 0 Z " fill="#4C5B6A" transform="translate(188,79)"/>
<path d="M0 0 C1.8871875 0.061875 1.8871875 0.061875 3.8125 0.125 C-0.0925849 3.67507718 -3.16484643 4.94319916 -8.1875 6.125 C-7.875 4.25 -7.875 4.25 -7.1875 2.125 C-4.09861478 0.06574319 -3.47814073 -0.1140374 0 0 Z " fill="#284253" transform="translate(300.1875,397.875)"/>
<path d="M0 0 C0 3 0 3 -1.375 5.125 C-5.28802036 7.92001454 -9.29206145 7.82030769 -14 8 C-11 6 -11 6 -8.6875 5.125 C-5.49257705 3.78759039 -2.83434348 1.97744894 0 0 Z " fill="#4F6475" transform="translate(446,377)"/>
<path d="M0 0 C0.33 0.66 0.66 1.32 1 2 C0.525625 2.45375 0.05125 2.9075 -0.4375 3.375 C-2.09027808 4.93258204 -2.09027808 4.93258204 -3 7 C-9.23076923 10 -9.23076923 10 -13 10 C-12 8 -12 8 -9 7 C-8.38125 6.38125 -7.7625 5.7625 -7.125 5.125 C-4.91839587 2.91839587 -2.71732028 1.50962238 0 0 Z " fill="#657481" transform="translate(35,315)"/>
<path d="M0 0 C0.99 0.33 1.98 0.66 3 1 C2.2884375 1.61875 2.2884375 1.61875 1.5625 2.25 C-0.16266518 4.182185 -0.56584875 5.48192275 -1 8 C-1.94875 7.814375 -2.8975 7.62875 -3.875 7.4375 C-6.89868793 6.71313368 -6.89868793 6.71313368 -9 8 C-8.67 7.01 -8.34 6.02 -8 5 C-6.34561387 4.30341637 -4.67745682 3.63903117 -3 3 C-1.22722741 1.47992158 -1.22722741 1.47992158 0 0 Z " fill="#435E75" transform="translate(386,143)"/>
<path d="M0 0 C1.32 0 2.64 0 4 0 C4 0.66 4 1.32 4 2 C4.69867188 2.19335938 5.39734375 2.38671875 6.1171875 2.5859375 C7.02726562 2.84632813 7.93734375 3.10671875 8.875 3.375 C9.77992188 3.63023437 10.68484375 3.88546875 11.6171875 4.1484375 C14 5 14 5 16 7 C16 7.66 16 8.32 16 9 C14.35 8.67 12.7 8.34 11 8 C11 7.34 11 6.68 11 6 C8.36 5.34 5.72 4.68 3 4 C3 3.01 3 2.02 3 1 C2.01 0.67 1.02 0.34 0 0 Z " fill="#576473" transform="translate(119,467)"/>
<path d="M0 0 C2.4375 0.6875 2.4375 0.6875 5 2 C5.8125 4.625 5.8125 4.625 6 7 C6.99 7.33 7.98 7.66 9 8 C9.33 9.65 9.66 11.3 10 13 C4.125 8.375 4.125 8.375 3 5 C2.01 4.34 1.02 3.68 0 3 C0 2.01 0 1.02 0 0 Z " fill="#414D64" transform="translate(229,354)"/>
<path d="M0 0 C3 0.75 3 0.75 6 2.75 C6 3.41 6 4.07 6 4.75 C7.32 4.42 8.64 4.09 10 3.75 C10 4.74 10 5.73 10 6.75 C9.21625 6.481875 8.4325 6.21375 7.625 5.9375 C3.10760831 4.45766479 -1.44270338 3.10097726 -6 1.75 C-3 -0.25 -3 -0.25 0 0 Z " fill="#4A5969" transform="translate(288,126.25)"/>
<path d="M0 0 C1.07765625 0.10183594 2.1553125 0.20367187 3.265625 0.30859375 C4.08546875 0.39238281 4.9053125 0.47617187 5.75 0.5625 C5.75 0.8925 5.75 1.2225 5.75 1.5625 C3.45952777 1.92431089 1.16757055 2.27673224 -1.125 2.625 C-3.03925781 2.92083984 -3.03925781 2.92083984 -4.9921875 3.22265625 C-8.25 3.5625 -8.25 3.5625 -10.25 2.5625 C-10.25 1.9025 -10.25 1.2425 -10.25 0.5625 C-6.70049966 -0.60056443 -3.69176052 -0.36115049 0 0 Z " fill="#324154" transform="translate(55.25,381.4375)"/>
<path d="M0 0 C0.33 0 0.66 0 1 0 C1 1.65 1 3.3 1 5 C3.97 5.495 3.97 5.495 7 6 C6.67 6.66 6.34 7.32 6 8 C5.01 8 4.02 8 3 8 C3 9.65 3 11.3 3 13 C0.09471233 10.09471233 -0.90872061 7.33876441 -1.1875 3.25 C-1 1 -1 1 0 0 Z " fill="#647588" transform="translate(16,333)"/>
<path d="M0 0 C4.95 0 9.9 0 15 0 C14.67 0.66 14.34 1.32 14 2 C9.07942161 3.32015518 4.94686159 2.76761645 0 2 C0 1.34 0 0.68 0 0 Z " fill="#3D4DBC" transform="translate(233,458)"/>
<path d="M0 0 C0.66 0 1.32 0 2 0 C1.57910004 5.60461531 1.08386889 10.72086547 -1 16 C-1.66 15.67 -2.32 15.34 -3 15 C-2 10 -1 5 0 0 Z " fill="#091F32" transform="translate(100,224)"/>
<path d="M0 0 C0.99 0.33 1.98 0.66 3 1 C2.88490339 2.41750563 2.75746342 3.83401169 2.625 5.25 C2.55539063 6.03890625 2.48578125 6.8278125 2.4140625 7.640625 C1.98380988 10.09225311 1.15017865 11.81185526 0 14 C0 14.66 0 15.32 0 16 C-0.66 16 -1.32 16 -2 16 C-1.855625 15.030625 -1.71125 14.06125 -1.5625 13.0625 C-0.93952558 8.71947831 -0.46492141 4.36234766 0 0 Z " fill="#6F8893" transform="translate(103,216)"/>
<path d="M0 0 C0.33 0 0.66 0 1 0 C1.21755666 5.4389165 1.10428384 9.87080814 -1 15 C-0.34 15.33 0.32 15.66 1 16 C0.01 16.33 -0.98 16.66 -2 17 C-2.33 17.66 -2.66 18.32 -3 19 C-2.37679879 12.56025419 -1.35991738 6.32427599 0 0 Z " fill="#5C6875" transform="translate(111,436)"/>
<path d="M0 0 C0.66 0 1.32 0 2 0 C2.34615998 5.65394631 1.43425238 9.03006806 -1 14 C-1.33 14 -1.66 14 -2 14 C-2.3690205 4.58997722 -2.3690205 4.58997722 0 0 Z " fill="#0C243A" transform="translate(114,430)"/>
<path d="M0 0 C3.96 0 7.92 0 12 0 C12.33 0.99 12.66 1.98 13 3 C11.54364629 3.22174933 10.08477044 3.42698698 8.625 3.625 C7.81289062 3.74101563 7.00078125 3.85703125 6.1640625 3.9765625 C5.44992188 3.98429687 4.73578125 3.99203125 4 4 C2.66666667 2.66666667 1.33333333 1.33333333 0 0 Z " fill="#505F6C" transform="translate(220,119)"/>
<path d="M0 0 C1 3 1 3 0.0625 5.1875 C-0.4634375 6.0846875 -0.4634375 6.0846875 -1 7 C-1.66 7 -2.32 7 -3 7 C-3.33 9.64 -3.66 12.28 -4 15 C-4.33 15 -4.66 15 -5 15 C-5.76681614 6.22421525 -5.76681614 6.22421525 -3.88671875 3.22265625 C-2.5 1.875 -2.5 1.875 0 0 Z " fill="#75818D" transform="translate(80,90)"/>
<path d="M0 0 C4 7.71428571 4 7.71428571 4 12 C3.34 12 2.68 12 2 12 C1.27232997 10.76115681 0.56845185 9.50831659 -0.125 8.25 C-0.51945312 7.55390625 -0.91390625 6.8578125 -1.3203125 6.140625 C-2 4 -2 4 -1.1171875 1.734375 C-0.74851562 1.16203125 -0.37984375 0.5896875 0 0 Z " fill="#495765" transform="translate(364,422)"/>
<path d="M0 0 C0 4.86666667 0 4.86666667 -1 7 C-4.5625 8.75 -4.5625 8.75 -8 10 C-6.44303593 6.17836093 -3.96591316 3.81381505 -1 1 C-0.67 0.67 -0.34 0.34 0 0 Z " fill="#4C5F80" transform="translate(285,223)"/>
<path d="M0 0 C0.66 0.33 1.32 0.66 2 1 C2 1.99 2 2.98 2 4 C-0.53184488 6.35723489 -1.47190093 7 -5 7 C-4.67 5.68 -4.34 4.36 -4 3 C-3.34 3 -2.68 3 -2 3 C-2 2.34 -2 1.68 -2 1 C-1.34 0.67 -0.68 0.34 0 0 Z " fill="#4D5B68" transform="translate(192,454)"/>
<path d="M0 0 C0.33 0.66 0.66 1.32 1 2 C0.360625 2.433125 -0.27875 2.86625 -0.9375 3.3125 C-3.26746003 4.91239177 -3.26746003 4.91239177 -4 8 C-4.99 8.33 -5.98 8.66 -7 9 C-7.66 8.34 -8.32 7.68 -9 7 C-8.34 7 -7.68 7 -7 7 C-7 6.01 -7 5.02 -7 4 C-4.69 2.68 -2.38 1.36 0 0 Z " fill="#426473" transform="translate(334,375)"/>
<path d="M0 0 C4.62 0 9.24 0 14 0 C8.47017435 2.76491282 6.11226863 3.09858498 0 3 C0 2.01 0 1.02 0 0 Z " fill="#5D6A76" transform="translate(63,379)"/>
<path d="M0 0 C1.8046875 1.55078125 1.8046875 1.55078125 3 3 C0.56212615 2.8590651 -1.87517853 2.71245458 -4.3125 2.5625 C-5.34793945 2.50352539 -5.34793945 2.50352539 -6.40429688 2.44335938 C-9.47161535 2.25072585 -12.06968152 1.97677283 -15 1 C-10.24847769 -1.69252931 -5.16339077 -1.30397496 0 0 Z " fill="#061C32" transform="translate(408,377)"/>
<path d="M0 0 C4.66430798 2.94054199 6.95884014 5.4382602 10 10 C9.34 10.66 8.68 11.32 8 12 C8 11.34 8 10.68 8 10 C7.01 9.67 6.02 9.34 5 9 C2.80585815 6.03145515 1.1694002 3.50820059 0 0 Z " fill="#415968" transform="translate(219,341)"/>
<path d="M0 0 C1.32 0.66 2.64 1.32 4 2 C2.35 4.97 0.7 7.94 -1 11 C-1.66 10.34 -2.32 9.68 -3 9 C-2.01 6.03 -1.02 3.06 0 0 Z " fill="#3F4E5E" transform="translate(286,298)"/>
<path d="M0 0 C0.66 0 1.32 0 2 0 C1.4409112 3.24271506 0.5867822 4.93057424 -2 7 C-2.66 7 -3.32 7 -4 7 C-4.33 8.32 -4.66 9.64 -5 11 C-5.99 11 -6.98 11 -8 11 C-7.34 10.34 -6.68 9.68 -6 9 C-5.5359375 7.7315625 -5.5359375 7.7315625 -5.0625 6.4375 C-4.711875 5.633125 -4.36125 4.82875 -4 4 C-3.01 3.67 -2.02 3.34 -1 3 C-0.67 2.01 -0.34 1.02 0 0 Z " fill="#4A6178" transform="translate(330,244)"/>
<path d="M0 0 C1.32 0.66 2.64 1.32 4 2 C4 2.66 4 3.32 4 4 C2.35 4.33 0.7 4.66 -1 5 C-1 6.65 -1 8.3 -1 10 C-1.66 10 -2.32 10 -3 10 C-3.33 7.69 -3.66 5.38 -4 3 C-2.68 2.01 -1.36 1.02 0 0 Z " fill="#062138" transform="translate(373,393)"/>
<path d="M0 0 C7.95393759 4.35215453 7.95393759 4.35215453 10 7 C10 7.66 10 8.32 10 9 C9.01 9.33 8.02 9.66 7 10 C6.401875 9.05125 5.80375 8.1025 5.1875 7.125 C3.18437474 3.86035803 3.18437474 3.86035803 0 2 C0 1.34 0 0.68 0 0 Z " fill="#58607D" transform="translate(432,305)"/>
<path d="M0 0 C8.58 0 17.16 0 26 0 C26 0.33 26 0.66 26 1 C17.42 1 8.84 1 0 1 C0 0.67 0 0.34 0 0 Z " fill="#495353" transform="translate(427,178)"/>
<path d="M0 0 C3 1 3 1 4.1875 3.0625 C4.455625 3.701875 4.72375 4.34125 5 5 C1.98968256 5.93423645 1.13349732 6.04449911 -2 5 C-1.34 3.35 -0.68 1.7 0 0 Z " fill="#0A243E" transform="translate(474,106)"/>
<path d="M0 0 C1.98 0 3.96 0 6 0 C3.61820737 3.74281699 1.25524265 6.97727468 -2 10 C-2 8.35 -2 6.7 -2 5 C-0.68 4.34 0.64 3.68 2 3 C1.34 2.01 0.68 1.02 0 0 Z " fill="#4C636D" transform="translate(366,403)"/>
<path d="M0 0 C0.33 0.66 0.66 1.32 1 2 C1.66 2 2.32 2 3 2 C4.06775224 3.96466413 5.06553465 5.96855359 6 8 C5.67 8.66 5.34 9.32 5 10 C2.22846695 8.61423347 1.51925062 6.65868859 0 4 C-0.66 3.01 -1.32 2.02 -2 1 C-1.34 0.67 -0.68 0.34 0 0 Z " fill="#395765" transform="translate(189,302)"/>
<path d="M0 0 C0.66 1.32 1.32 2.64 2 4 C1.01 4 0.02 4 -1 4 C-1 4.66 -1 5.32 -1 6 C-0.34 6.33 0.32 6.66 1 7 C-1.35438733 8.42944945 -2.48032433 9.08661261 -5.25 8.625 C-5.8275 8.41875 -6.405 8.2125 -7 8 C-6.21625 7.236875 -5.4325 6.47375 -4.625 5.6875 C-1.92742283 3.09108195 -1.92742283 3.09108195 0 0 Z " fill="#465473" transform="translate(50,300)"/>
<path d="M0 0 C2 1 4 2 6 3 C6 3.66 6 4.32 6 5 C6.66 5 7.32 5 8 5 C8 5.66 8 6.32 8 7 C5.69 6.34 3.38 5.68 1 5 C0.67 3.35 0.34 1.7 0 0 Z " fill="#0C2035" transform="translate(226,270)"/>
<path d="M0 0 C0.66 0.33 1.32 0.66 2 1 C1.2884375 1.61875 1.2884375 1.61875 0.5625 2.25 C-1.14345311 3.88384327 -1.14345311 3.88384327 -1.5 6.0625 C-2 8 -2 8 -5 10 C-4.50769231 3.47692308 -4.50769231 3.47692308 -1.9375 1.0625 C-0.9784375 0.5365625 -0.9784375 0.5365625 0 0 Z " fill="#323F4F" transform="translate(434,257)"/>
<path d="M0 0 C2.39073445 3.82517513 2.55966552 7.59665524 3 12 C2.01 11.67 1.02 11.34 0 11 C-0.84098656 6.98195309 -1.05404945 3.98196457 0 0 Z " fill="#3B4A5E" transform="translate(468,205)"/>
<path d="M0 0 C-0.78375 0.598125 -1.5675 1.19625 -2.375 1.8125 C-5.14574323 3.91085249 -5.14574323 3.91085249 -7 7 C-7.66 6.67 -8.32 6.34 -9 6 C-8.3125 3.625 -8.3125 3.625 -7 1 C-2.71428571 -1.35714286 -2.71428571 -1.35714286 0 0 Z " fill="#4C6177" transform="translate(376,200)"/>
<path d="M0 0 C0.66 0.33 1.32 0.66 2 1 C0.47005208 2.23697917 -1.05989583 3.47395833 -2.58984375 4.7109375 C-4.13266437 5.9666391 -4.13266437 5.9666391 -5 8 C-5.99 7.67 -6.98 7.34 -8 7 C-7.67 6.01 -7.34 5.02 -7 4 C-6.34 4 -5.68 4 -5 4 C-5 3.34 -5 2.68 -5 2 C-2.625 0.9375 -2.625 0.9375 0 0 Z " fill="#55616E" transform="translate(133,171)"/>
<path d="M0 0 C-1.0975223 2.99324263 -1.67682892 3.84610901 -4.625 5.25 C-5.40875 5.4975 -6.1925 5.745 -7 6 C-7 4.33333333 -7 2.66666667 -7 1 C-3.375 -1.125 -3.375 -1.125 0 0 Z " fill="#091F37" transform="translate(410,134)"/>
<path d="M0 0 C3.96 1.32 7.92 2.64 12 4 C12 4.33 12 4.66 12 5 C10.37536158 5.05395478 8.75021459 5.09277195 7.125 5.125 C6.22007812 5.14820312 5.31515625 5.17140625 4.3828125 5.1953125 C2 5 2 5 0 3 C0 2.01 0 1.02 0 0 Z " fill="#315670" transform="translate(150,84)"/>
<path d="M0 0 C0.99 0.33 1.98 0.66 3 1 C3 1.66 3 2.32 3 3 C4.134375 3.12375 5.26875 3.2475 6.4375 3.375 C7.613125 3.58125 8.78875 3.7875 10 4 C10.33 4.66 10.66 5.32 11 6 C8.69 6 6.38 6 4 6 C4 5.34 4 4.68 4 4 C2.68 3.34 1.36 2.68 0 2 C0 1.34 0 0.68 0 0 Z " fill="#0E2135" transform="translate(277,488)"/>
<path d="M0 0 C2 3 2 3 1.625 5.1875 C1.41875 5.785625 1.2125 6.38375 1 7 C1.66 7.33 2.32 7.66 3 8 C2.34 9.32 1.68 10.64 1 12 C0.87625 11.195625 0.7525 10.39125 0.625 9.5625 C0.315625 8.2940625 0.315625 8.2940625 0 7 C-0.66 6.67 -1.32 6.34 -2 6 C-1.34 4.02 -0.68 2.04 0 0 Z " fill="#6A808B" transform="translate(368,435)"/>
<path d="M0 0 C3.64775386 3.88309282 4.58525633 6.71201818 5 12 C0.125 7.25 0.125 7.25 -1 5 C-0.72057545 3.32345271 -0.39171753 1.65391846 0 0 Z " fill="#334759" transform="translate(109,398)"/>
<path d="M0 0 C2 1 2 1 3.125 4.0625 C3.41375 5.031875 3.7025 6.00125 4 7 C3.34 7.66 2.68 8.32 2 9 C1.34 9 0.68 9 0 9 C0 8.34 0 7.68 0 7 C-0.66 6.67 -1.32 6.34 -2 6 C-1.34 6 -0.68 6 0 6 C0 4.02 0 2.04 0 0 Z " fill="#547783" transform="translate(101,304)"/>
<path d="M0 0 C0.66 0.33 1.32 0.66 2 1 C0.51643192 6.68701095 0.51643192 6.68701095 -2.0625 8.25 C-2.701875 8.4975 -3.34125 8.745 -4 9 C-4.33 9.66 -4.66 10.32 -5 11 C-5.66 11 -6.32 11 -7 11 C-5.47038014 7.55835531 -3.37270934 4.90848242 -1 2 C-0.67 1.34 -0.34 0.68 0 0 Z " fill="#4A5D6C" transform="translate(264,244)"/>
<path d="M0 0 C0.4125 0.45375 0.825 0.9075 1.25 1.375 C3.06408095 3.05950374 4.75285627 3.99265971 7 5 C6.67 5.99 6.34 6.98 6 8 C3.50638429 6.79618552 1.31856917 5.54571278 -1 4 C-0.67 2.68 -0.34 1.36 0 0 Z " fill="#3D4B59" transform="translate(9,233)"/>
<path d="M0 0 C0.66 0 1.32 0 2 0 C1.8125 2.8125 1.8125 2.8125 1 6 C-1.88626661 8.27863153 -3.3047018 9 -7 9 C-6.21625 8.2575 -5.4325 7.515 -4.625 6.75 C-2.43495469 4.45566682 -1.17268614 2.87841142 0 0 Z " fill="#081D32" transform="translate(183,462)"/>
<path d="M0 0 C2.64 0 5.28 0 8 0 C8 0.66 8 1.32 8 2 C8.66 2.33 9.32 2.66 10 3 C8.72125 3.061875 7.4425 3.12375 6.125 3.1875 C5.40570313 3.22230469 4.68640625 3.25710938 3.9453125 3.29296875 C3.30335938 3.19628906 2.66140625 3.09960938 2 3 C1.34 2.01 0.68 1.02 0 0 Z " fill="#98A8B8" transform="translate(225,458)"/>
<path d="M0 0 C1 3 1 3 0.22265625 5.04296875 C-0.16019531 5.75066406 -0.54304688 6.45835937 -0.9375 7.1875 C-1.31777344 7.90292969 -1.69804687 8.61835938 -2.08984375 9.35546875 C-2.54037109 10.16951172 -2.54037109 10.16951172 -3 11 C-3.99 10.67 -4.98 10.34 -6 10 C-5.01 8.02 -4.02 6.04 -3 4 C-2.34 4 -1.68 4 -1 4 C-0.67 2.68 -0.34 1.36 0 0 Z " fill="#4F5E6C" transform="translate(462,341)"/>
<path d="M0 0 C2.5625 2.25 2.5625 2.25 5 5 C4.8125 7.3125 4.8125 7.3125 4 9 C-0.00390625 4.60546875 -0.00390625 4.60546875 -1 3 C-0.67 2.01 -0.34 1.02 0 0 Z " fill="#334E60" transform="translate(211,328)"/>
<path d="M0 0 C2.0625 0.4375 2.0625 0.4375 4 1 C3.34 2.32 2.68 3.64 2 5 C1.4225 4.79375 0.845 4.5875 0.25 4.375 C-2.51967567 3.91338739 -3.64561267 4.57055055 -6 6 C-4 4 -2 2 0 0 Z " fill="#081E33" transform="translate(28,322)"/>
<path d="M0 0 C0.74955438 2.9982175 1.41070989 5.96936513 2 9 C1.34 9 0.68 9 0 9 C-0.33 9.66 -0.66 10.32 -1 11 C-1.66 10.67 -2.32 10.34 -3 10 C-2.01 6.7 -1.02 3.4 0 0 Z " fill="#4D5E73" transform="translate(376,310)"/>
<path d="M0 0 C-0.33 0.99 -0.66 1.98 -1 3 C-4.77545388 1.90931332 -7.47043472 1.0916909 -10 -2 C-5.82412255 -3.39195915 -3.86525224 -1.82323219 0 0 Z " fill="#405363" transform="translate(36,249)"/>
<path d="M0 0 C1.24546405 2.49092811 0.7767578 3.41080733 0 6 C-0.7425 6.12375 -1.485 6.2475 -2.25 6.375 C-4.80141485 6.95486701 -6.7267573 7.73708739 -9 9 C-6.31941902 5.42589203 -3.57410797 2.68058098 0 0 Z " fill="#405361" transform="translate(296,213)"/>
<path d="M0 0 C0.33 1.32 0.66 2.64 1 4 C-0.98 4.99 -0.98 4.99 -3 6 C-3.66 4.68 -4.32 3.36 -5 2 C-2 0 -2 0 0 0 Z " fill="#1D344A" transform="translate(21,185)"/>
<path d="M0 0 C-5.14285714 4.42857143 -5.14285714 4.42857143 -9 5 C-9 4.01 -9 3.02 -9 2 C-5.5647952 -0.29013653 -4.014669 -0.17842973 0 0 Z " fill="#2A485A" transform="translate(401,138)"/>
<path d="M0 0 C0.66 0.66 1.32 1.32 2 2 C2.99 2.33 3.98 2.66 5 3 C5.66 3.33 6.32 3.66 7 4 C4.03 6.475 4.03 6.475 1 9 C1 8.01 1 7.02 1 6 C0.37400383 4.31763529 -0.28752268 2.6476038 -1 1 C-0.67 0.67 -0.34 0.34 0 0 Z " fill="#475772" transform="translate(477,105)"/>
<path d="M0 0 C2.24606427 1.77444972 2.95081002 2.58352485 3.29296875 5.48046875 C3.25816406 6.37378906 3.22335937 7.26710938 3.1875 8.1875 C3.16042969 9.08855469 3.13335937 9.98960938 3.10546875 10.91796875 C3.07066406 11.60503906 3.03585937 12.29210937 3 13 C2.67 13 2.34 13 2 13 C0.54815522 8.46298506 -0.23509196 4.81938524 0 0 Z " fill="#4B5965" transform="translate(402,93)"/>
<path d="M0 0 C2.475 0.99 2.475 0.99 5 2 C5 2.66 5 3.32 5 4 C1.32589215 5.17571451 -2.16929183 5.07366746 -6 5 C-6 4.67 -6 4.34 -6 4 C-4.35 3.67 -2.7 3.34 -1 3 C-0.67 2.01 -0.34 1.02 0 0 Z " fill="#5F6B75" transform="translate(164,481)"/>
<path d="M0 0 C1.32 0.33 2.64 0.66 4 1 C3 4 3 4 0.9375 5.1875 C0.298125 5.455625 -0.34125 5.72375 -1 6 C-1.33 5.01 -1.66 4.02 -2 3 C-1.34 2.01 -0.68 1.02 0 0 Z " fill="#082238" transform="translate(362,430)"/>
<path d="M0 0 C1.9375 0.3125 1.9375 0.3125 4 1 C4.33 1.99 4.66 2.98 5 4 C5.99 4 6.98 4 8 4 C8 5.65 8 7.3 8 9 C6.2925002 7.71937515 4.62626404 6.38232443 3 5 C3 4.34 3 3.68 3 3 C2.34 3 1.68 3 1 3 C0.67 2.01 0.34 1.02 0 0 Z " fill="#38505E" transform="translate(179,294)"/>
<path d="M0 0 C2.13586678 3.20380017 2.23132175 4.01939967 2.125 7.6875 C2.10695312 8.49574219 2.08890625 9.30398438 2.0703125 10.13671875 C2.04710937 10.75160156 2.02390625 11.36648438 2 12 C1.01 12 0.02 12 -1 12 C-0.67 8.04 -0.34 4.08 0 0 Z " fill="#07172D" transform="translate(50,276)"/>
<path d="M0 0 C0.556875 0.268125 1.11375 0.53625 1.6875 0.8125 C1.0275 0.8125 0.3675 0.8125 -0.3125 0.8125 C-0.539375 1.43125 -0.76625 2.05 -1 2.6875 C-2.69179835 5.42660209 -4.30494161 5.86274472 -7.3125 6.8125 C-7.3125 4.8125 -7.3125 4.8125 -5.0625 2.125 C-2.3125 -0.1875 -2.3125 -0.1875 0 0 Z " fill="#365467" transform="translate(158.3125,244.1875)"/>
<path d="M0 0 C0.66 0.33 1.32 0.66 2 1 C-0.31 3.31 -2.62 5.62 -5 8 C-5.66 6.68 -6.32 5.36 -7 4 C-6.030625 3.525625 -5.06125 3.05125 -4.0625 2.5625 C-1.19522563 1.29806053 -1.19522563 1.29806053 0 0 Z " fill="#69869B" transform="translate(395,179)"/>
<path d="M0 0 C1.485 0.99 1.485 0.99 3 2 C3.1875 5.625 3.1875 5.625 3 9 C2.01 9.33 1.02 9.66 0 10 C0 6.7 0 3.4 0 0 Z " fill="#081C2F" transform="translate(91,134)"/>
<path d="M0 0 C0.66 0.33 1.32 0.66 2 1 C-0.45288316 3.45288316 -3.04418431 5.19031692 -6 7 C-6.99 7 -7.98 7 -9 7 C-7.13582699 3.27165398 -3.86360149 1.28786716 0 0 Z " fill="#75848C" transform="translate(319,386)"/>
<path d="M0 0 C2.62113708 0 4.50935112 0.31292445 7 1 C4.0534615 2.80066242 1.11198065 4.50163895 -2 6 C-2 4.68 -2 3.36 -2 2 C-1.34 2 -0.68 2 0 2 C0 1.34 0 0.68 0 0 Z " fill="#627483" transform="translate(389,379)"/>
<path d="M0 0 C0.66 0 1.32 0 2 0 C2 0.66 2 1.32 2 2 C1.01 1.67 0.02 1.34 -1 1 C-0.67 0.67 -0.34 0.34 0 0 Z M-2 2 C-1.01 2.99 -0.02 3.98 1 5 C0.01 5.99 -0.98 6.98 -2 8 C-2 7.34 -2 6.68 -2 6 C-2.66 6 -3.32 6 -4 6 C-3.34 4.68 -2.68 3.36 -2 2 Z " fill="#0A2439" transform="translate(446,371)"/>
<path d="M0 0 C3.2542015 2.83430453 4.5206753 4.68607774 5 9 C2.50584728 8.00233891 1.21259665 7.31383315 -0.3125 5.0625 C-1 3 -1 3 0 0 Z " fill="#4D616E" transform="translate(111,330)"/>
<path d="M0 0 C0.33 0.66 0.66 1.32 1 2 C-0.65 4.31 -2.3 6.62 -4 9 C-4.66 8.67 -5.32 8.34 -6 8 C-5.67 7.01 -5.34 6.02 -5 5 C-4.34 5 -3.68 5 -3 5 C-2.87625 4.360625 -2.7525 3.72125 -2.625 3.0625 C-2.41875 2.381875 -2.2125 1.70125 -2 1 C-1.34 0.67 -0.68 0.34 0 0 Z " fill="#39465A" transform="translate(271,327)"/>
<path d="M0 0 C1.75 0.0625 1.75 0.0625 4 1 C5.59501537 3.24164322 6.74543018 5.53566643 8 8 C6.0625 7.1875 6.0625 7.1875 4 6 C3.67 5.01 3.34 4.02 3 3 C2.01 2.67 1.02 2.34 0 2 C0 1.34 0 0.68 0 0 Z " fill="#415D82" transform="translate(160,274)"/>
<path d="M0 0 C0.66 0.33 1.32 0.66 2 1 C1.649375 1.78375 1.29875 2.5675 0.9375 3.375 C0.628125 4.24125 0.31875 5.1075 0 6 C0.33 6.66 0.66 7.32 1 8 C-0.65 7.67 -2.3 7.34 -4 7 C-3.43628586 3.73045798 -2.50037734 2.17424117 0 0 Z " fill="#071D34" transform="translate(414,191)"/>
<path d="M0 0 C0 0.99 0 1.98 0 3 C-0.66 3 -1.32 3 -2 3 C-2 3.66 -2 4.32 -2 5 C-2.66 5 -3.32 5 -4 5 C-4.33 4.34 -4.66 3.68 -5 3 C-5.99 2.34 -6.98 1.68 -8 1 C-5.10765685 0.17361624 -3.11257569 0 0 0 Z " fill="#515A63" transform="translate(497,98)"/>
<path d="M0 0 C2.64 0 5.28 0 8 0 C8.66 1.32 9.32 2.64 10 4 C6.7 3.01 3.4 2.02 0 1 C0 0.67 0 0.34 0 0 Z " fill="#4D5B67" transform="translate(143,480)"/>
<path d="M0 0 C0.66 0.33 1.32 0.66 2 1 C2 2.65 2 4.3 2 6 C0.68 6.33 -0.64 6.66 -2 7 C-2.6875 5.1875 -2.6875 5.1875 -3 3 C-1.5625 1.25 -1.5625 1.25 0 0 Z " fill="#082139" transform="translate(195,449)"/>
<path d="M0 0 C0 0.66 0 1.32 0 2 C0.99 2.33 1.98 2.66 3 3 C0.69 3.33 -1.62 3.66 -4 4 C-4.66 3.01 -5.32 2.02 -6 1 C-4 0 -4 0 0 0 Z " fill="#31414E" transform="translate(423,380)"/>
<path d="M0 0 C1.65 0.99 3.3 1.98 5 3 C4.67 4.98 4.34 6.96 4 9 C1.49701566 6.06171403 0.53069061 3.82097239 0 0 Z " fill="#4A5969" transform="translate(25,360)"/>
<path d="M0 0 C0.33 0.99 0.66 1.98 1 3 C-1.31 4.98 -3.62 6.96 -6 9 C-5.67 7.68 -5.34 6.36 -5 5 C-3.68352881 4.30062468 -2.34977849 3.63270867 -1 3 C-0.67 2.01 -0.34 1.02 0 0 Z " fill="#0A1F36" transform="translate(260,252)"/>
<path d="M0 0 C2.3828125 -0.29296875 2.3828125 -0.29296875 5.125 -0.1875 C6.03507813 -0.16042969 6.94515625 -0.13335937 7.8828125 -0.10546875 C8.58148438 -0.07066406 9.28015625 -0.03585938 10 0 C10 0.66 10 1.32 10 2 C4.06 2.495 4.06 2.495 -2 3 C-1.34 2.01 -0.68 1.02 0 0 Z " fill="#ABB5B8" transform="translate(173,232)"/>
<path d="M0 0 C1.65 0 3.3 0 5 0 C2.64619703 3.92300495 0.35535069 4.83857315 -4 6 C-3.6875 4.0625 -3.6875 4.0625 -3 2 C-2.01 1.67 -1.02 1.34 0 1 C0 0.67 0 0.34 0 0 Z " fill="#526172" transform="translate(342,143)"/>
<path d="M0 0 C1.32 0.33 2.64 0.66 4 1 C-1.41538462 5.06153846 -1.41538462 5.06153846 -4.375 4.75 C-4.91125 4.5025 -5.4475 4.255 -6 4 C-5.67 3.01 -5.34 2.02 -5 1 C-3.02 1.495 -3.02 1.495 -1 2 C-0.67 1.34 -0.34 0.68 0 0 Z " fill="#384A61" transform="translate(351,138)"/>
<path d="M0 0 C2.97 0.495 2.97 0.495 6 1 C6 1.66 6 2.32 6 3 C7.65 3.33 9.3 3.66 11 4 C7.19362399 5.46399077 4.65257704 4.62336757 1 3 C0.67 2.01 0.34 1.02 0 0 Z " fill="#4B5D77" transform="translate(271,122)"/>
<path d="M0 0 C3.33537489 1.11179163 4.63707344 2.47411298 7 5 C6.67 5.66 6.34 6.32 6 7 C4.35 6.67 2.7 6.34 1 6 C0.67 4.02 0.34 2.04 0 0 Z " fill="#425564" transform="translate(393,84)"/>
<path d="M0 0 C1.43655854 -0.08131463 2.8744483 -0.13933559 4.3125 -0.1875 C5.51326172 -0.23970703 5.51326172 -0.23970703 6.73828125 -0.29296875 C9.47851584 0.06198392 10.29171079 0.89366282 12 3 C10.37419034 2.88601335 8.74932843 2.75844341 7.125 2.625 C6.22007812 2.55539062 5.31515625 2.48578125 4.3828125 2.4140625 C2 2 2 2 0 0 Z " fill="#051A2C" transform="translate(198,453)"/>
<path d="M0 0 C0.66 0.99 1.32 1.98 2 3 C1.01 3.66 0.02 4.32 -1 5 C-1 4.34 -1 3.68 -1 3 C-2.98 3.66 -4.96 4.32 -7 5 C-4.53846154 1.18461538 -4.53846154 1.18461538 -1.8125 0.25 C-1.214375 0.1675 -0.61625 0.085 0 0 Z " fill="#3C5B6C" transform="translate(357,353)"/>
<path d="M0 0 C4.42857143 5.14285714 4.42857143 5.14285714 5 9 C2.35247996 6.42215154 0.05567935 4.08351902 -2 1 C-1.34 0.67 -0.68 0.34 0 0 Z " fill="#081F35" transform="translate(219,336)"/>
<path d="M0 0 C0.33 0.99 0.66 1.98 1 3 C-0.65 4.65 -2.3 6.3 -4 8 C-4.33 7.01 -4.66 6.02 -5 5 C-3.35 3.35 -1.7 1.7 0 0 Z " fill="#092034" transform="translate(249,265)"/>
<path d="M0 0 C0 0.99 0 1.98 0 3 C-3 5.1875 -3 5.1875 -6 7 C-5.49396008 4.83125748 -5.00016187 3.00032373 -4 1 C-1.9375 0.375 -1.9375 0.375 0 0 Z " fill="#526979" transform="translate(350,224)"/>
<path d="M0 0 C2.97 0 5.94 0 9 0 C5.55549263 2.29633824 3.06187717 2.54016485 -1 3 C-0.67 2.01 -0.34 1.02 0 0 Z " fill="#66717D" transform="translate(201,124)"/>
<path d="M0 0 C1.65 0 3.3 0 5 0 C5 1.32 5 2.64 5 4 C2.69 4 0.38 4 -2 4 C-1.34 2.68 -0.68 1.36 0 0 Z " fill="#495868" transform="translate(87,82)"/>
<path d="M0 0 C0.33 1.32 0.66 2.64 1 4 C-0.75 5.125 -0.75 5.125 -3 6 C-5.25 5.125 -5.25 5.125 -7 4 C-6.030625 3.525625 -5.06125 3.05125 -4.0625 2.5625 C-1.19522563 1.29806053 -1.19522563 1.29806053 0 0 Z " fill="#3E4E60" transform="translate(195,74)"/>
<path d="M0 0 C0.99 0.33 1.98 0.66 3 1 C3 1.66 3 2.32 3 3 C4.32 3.33 5.64 3.66 7 4 C7 4.66 7 5.32 7 6 C4.03824877 5.38722388 2.61941217 4.74627478 0 3 C0 2.01 0 1.02 0 0 Z " fill="#43505D" transform="translate(126,65)"/>
<path d="M0 0 C1.42944945 2.35438733 2.08661261 3.48032433 1.625 6.25 C1.41875 6.8275 1.2125 7.405 1 8 C0.34 8 -0.32 8 -1 8 C-1.33 8.66 -1.66 9.32 -2 10 C-1.54177532 6.53058454 -1.10868317 3.32604951 0 0 Z " fill="#586775" transform="translate(205,45)"/>
<path d="M0 0 C2.475 0.495 2.475 0.495 5 1 C4.67 3.64 4.34 6.28 4 9 C3.34 8.67 2.68 8.34 2 8 C0.73770492 3.52459016 0.73770492 3.52459016 2 1 C1.34 0.67 0.68 0.34 0 0 Z " fill="#1D3043" transform="translate(249,355)"/>
<path d="M0 0 C1.98 0.495 1.98 0.495 4 1 C4 2.65 4 4.3 4 6 C2.35 4.68 0.7 3.36 -1 2 C-0.67 1.34 -0.34 0.68 0 0 Z " fill="#293C54" transform="translate(154,266)"/>
<path d="M0 0 C-2.39509338 2.89932357 -4.31245243 3.50168276 -8 4 C-7 1 -7 1 -4.5625 -0.25 C-2 -1 -2 -1 0 0 Z " fill="#626D7C" transform="translate(171,236)"/>
<path d="M0 0 C0.66 0.33 1.32 0.66 2 1 C1.67 1.99 1.34 2.98 1 4 C-2.0625 5.1875 -2.0625 5.1875 -5 6 C-4.67 5.01 -4.34 4.02 -4 3 C-3.34 3 -2.68 3 -2 3 C-2 2.34 -2 1.68 -2 1 C-1.34 0.67 -0.68 0.34 0 0 Z " fill="#606C7A" transform="translate(23,180)"/>
<path d="M0 0 C0.33 0 0.66 0 1 0 C1 2.64 1 5.28 1 8 C1.66 8.33 2.32 8.66 3 9 C2.01 9.99 1.02 10.98 0 12 C-1.16063604 7.74433453 -0.76173392 4.3164922 0 0 Z " fill="#7A8A95" transform="translate(90,136)"/>
<path d="M0 0 C1.67542976 0.28604898 3.34385343 0.61781233 5 1 C5 1.66 5 2.32 5 3 C2.69 3.33 0.38 3.66 -2 4 C-1 1 -1 1 0 0 Z " fill="#081E36" transform="translate(195,124)"/>
<path d="M0 0 C0.99 0.33 1.98 0.66 3 1 C1.35 2.65 -0.3 4.3 -2 6 C-2.33 5.01 -2.66 4.02 -3 3 C-2.01 2.01 -1.02 1.02 0 0 Z " fill="#2C3D50" transform="translate(84,86)"/>
<path d="M0 0 C2.125 0.9375 2.125 0.9375 4 2 C1.525 3.485 1.525 3.485 -1 5 C-1.33 3.68 -1.66 2.36 -2 1 C-1.34 0.67 -0.68 0.34 0 0 Z " fill="#3D4A7D" transform="translate(349,471)"/>
<path d="M0 0 C0.99 0 1.98 0 3 0 C5 3 5 3 4.625 5.1875 C4.41875 5.785625 4.2125 6.38375 4 7 C0 1.125 0 1.125 0 0 Z " fill="#4A5B6C" transform="translate(31,373)"/>
<path d="M0 0 C0.66 0 1.32 0 2 0 C2 2.64 2 5.28 2 8 C1.01 8 0.02 8 -1 8 C-0.67 5.36 -0.34 2.72 0 0 Z " fill="#092137" transform="translate(99,302)"/>
<path d="M0 0 C1 2 2 4 3 6 C2.67 6.66 2.34 7.32 2 8 C1.01 8 0.02 8 -1 8 C-0.67 5.36 -0.34 2.72 0 0 Z " fill="#516272" transform="translate(378,302)"/>
<path d="M0 0 C0.66 0.99 1.32 1.98 2 3 C1.34 3.66 0.68 4.32 0 5 C-0.39764263 6.98821313 -0.73775349 8.98944339 -1 11 C-1.33 11 -1.66 11 -2 11 C-2.25 3.375 -2.25 3.375 0 0 Z " fill="#364657" transform="translate(150,251)"/>
<path d="M0 0 C5.53846154 0.49230769 5.53846154 0.49230769 7.875 3.0625 C8.431875 4.0215625 8.431875 4.0215625 9 5 C8.01 5.495 8.01 5.495 7 6 C6.67 5.34 6.34 4.68 6 4 C4.02477154 2.95191959 2.02518491 1.9479589 0 1 C0 0.67 0 0.34 0 0 Z " fill="#566471" transform="translate(35,252)"/>
<path d="M0 0 C-0.33 0.99 -0.66 1.98 -1 3 C-1.66 3 -2.32 3 -3 3 C-3.33 3.99 -3.66 4.98 -4 6 C-4.66 5.67 -5.32 5.34 -6 5 C-5.625 3.0625 -5.625 3.0625 -5 1 C-3 0 -3 0 0 0 Z " fill="#3E5C70" transform="translate(344,231)"/>
<path d="M0 0 C0.66 0 1.32 0 2 0 C2 1.32 2 2.64 2 4 C1.34 4 0.68 4 0 4 C-0.33 5.32 -0.66 6.64 -1 8 C-1.93065133 5.39417629 -2.14917407 4.35801776 -1.0625 1.75 C-0.711875 1.1725 -0.36125 0.595 0 0 Z " fill="#2B4858" transform="translate(109,205)"/>
<path d="M0 0 C0 3 0 3 -1 6 C-2.65 6 -4.3 6 -6 6 C-2.25 1.125 -2.25 1.125 0 0 Z " fill="#4A596B" transform="translate(421,184)"/>
<path d="M0 0 C2.125 0.375 2.125 0.375 4 1 C4 1.99 4 2.98 4 4 C3.01 4.33 2.02 4.66 1 5 C0.01 4.01 -0.98 3.02 -2 2 C-1.34 1.34 -0.68 0.68 0 0 Z " fill="#091F35" transform="translate(387,144)"/>
<path d="M0 0 C2.4375 1.25 2.4375 1.25 3.4375 4.25 C-2.3125 2.5 -2.3125 2.5 -4.5625 0.25 C-2.5625 -0.75 -2.5625 -0.75 0 0 Z " fill="#2F4251" transform="translate(309.5625,135.75)"/>
<path d="M0 0 C0.99 0.33 1.98 0.66 3 1 C2.34 2.65 1.68 4.3 1 6 C-0.32 5.34 -1.64 4.68 -3 4 C-2.01 2.68 -1.02 1.36 0 0 Z " fill="#5C6D79" transform="translate(332,80)"/>
<path d="" fill="#000000" transform="translate(0,0)"/>
<path d="" fill="#00FFFF" transform="translate(0,0)"/>
<path d="" fill="#000000" transform="translate(0,0)"/>
<path d="" fill="#0000FF" transform="translate(0,0)"/>
<path d="" fill="#00FFFF" transform="translate(0,0)"/>
<path d="" fill="#FFFFFF" transform="translate(0,0)"/>
<path d="" fill="#FFFFFF" transform="translate(0,0)"/>
<path d="" fill="#FFFFFF" transform="translate(0,0)"/>
<path d="" fill="#000000" transform="translate(0,0)"/>
<path d="" fill="#00FFFF" transform="translate(0,0)"/>
</svg>
